<svg xmlns="http://www.w3.org/2000/svg" xmlns:xlink="http://www.w3.org/1999/xlink" id="Layer_1" x="0" y="0" version="1.1" viewBox="0 0 520 832.7" xml:space="preserve" style="enable-background:new 0 0 520 832.7"><style type="text/css">.st1{fill:url(#SVGID_1_)}.st2{fill:url(#SVGID_2_)}.st3{fill:url(#SVGID_3_)}.st4{fill:url(#SVGID_4_)}.st5{fill:url(#SVGID_5_)}.st6{fill:url(#SVGID_6_)}.st7{fill:url(#SVGID_7_)}.st8{fill:url(#SVGID_8_)}.st10{fill:url(#SVGID_10_)}.st11{fill:url(#SVGID_11_)}.st12{fill:url(#SVGID_12_)}.st14{fill:url(#SVGID_14_)}.st15{fill:url(#SVGID_15_)}.st16{fill:url(#SVGID_16_)}.st17{fill:url(#SVGID_17_)}.st54{fill:#1d45ba}.st56{fill:#52fcff}.st252{fill:#164dd2}.st253{fill:url(#XMLID_99_)}.st254{fill:#e1f2ff}.st255{fill:url(#XMLID_100_)}.st256{fill:url(#XMLID_101_)}.st257{fill:url(#XMLID_102_)}.st258{fill:url(#XMLID_103_)}.st259{fill:url(#XMLID_104_)}.st260{opacity:.15;fill:url(#XMLID_105_)}.st275{fill:#2c30d1}.st405{fill:url(#XMLID_106_)}.st488{opacity:.3}.st815{fill:#c7ecff}.st826{fill:#1d45ba;stroke:#1d45ba;stroke-miterlimit:10}</style><switch><g><g><g id="_x34__4_"><path id="XMLID_97_" d="M517.4,495.5l0.4-240.2c0-7.1-4.3-15.3-9.6-18.3L234.5,79.3c-2.3-1.3-4.4-1.4-6-0.6l0-0.1 l-5.8,3.3l7.2,10.2l0.2,233c0,7.1,4.3,15.3,9.6,18.3L506.6,507l2.6-1.1l5.1-2.8v0C516.2,501.8,517.4,499.2,517.4,495.5z" class="st252"/><linearGradient id="XMLID_99_" x1="542.835" x2="163.576" y1="304.975" y2="281.912" gradientUnits="userSpaceOnUse"><stop offset="0" style="stop-color:#17d1aa"/><stop offset=".066" style="stop-color:#1ac2ae"/><stop offset=".265" style="stop-color:#229bb8"/><stop offset=".462" style="stop-color:#297cc0"/><stop offset=".652" style="stop-color:#2d66c6"/><stop offset=".835" style="stop-color:#3059ca"/><stop offset="1" style="stop-color:#3154cb"/></linearGradient><path id="XMLID_96_" d="M503.3,506.8L229.5,349.1c-5.3-3.1-9.6-11.3-9.6-18.3l-0.2-241.4c0-7.1,4.3-10.3,9.6-7.3 l273.7,157.7c5.3,3.1,9.6,11.3,9.6,18.3l0.2,234.3C512.9,499.5,508.6,509.9,503.3,506.8z" class="st253"/><path id="XMLID_95_" d="M496.6,481.9L235.9,331.7c-2.3-1.3-4.2-5-4.2-8.1l-0.2-217.4c0-3.1,1.9-4.6,4.2-3.2 l260.6,150.1c2.3,1.3,4.2,5,4.2,8.1l0.2,217.4C500.8,481.8,498.9,483.2,496.6,481.9z" class="st275"/><linearGradient id="XMLID_100_" x1="1753.248" x2="1734.867" y1="-2279.782" y2="-2303.995" gradientTransform="matrix(0.8665 0.4992 0.5014 1.4429 -4.6347 2591.0835)" gradientUnits="userSpaceOnUse"><stop offset="0" style="stop-color:#2f009f"/><stop offset="1" style="stop-color:#3915a9"/></linearGradient><path id="XMLID_56_" d="M366.6,171.9l-1.1-0.6c-1.4-0.8-2.5-2.9-2.5-4.7l0,0c0-1.8,1.1-2.7,2.5-1.9l1.1,0.6 c1.4,0.8,2.5,2.9,2.5,4.7l0,0C369.1,171.9,368,172.7,366.6,171.9z" class="st255"/><linearGradient id="XMLID_101_" x1="183.663" x2="345.553" y1="331.716" y2="703.05" gradientUnits="userSpaceOnUse"><stop offset="0" style="stop-color:#17d1aa"/><stop offset=".073" style="stop-color:#1eb0b3"/><stop offset=".153" style="stop-color:#2493ba"/><stop offset=".243" style="stop-color:#297cc0"/><stop offset=".346" style="stop-color:#2c6ac5"/><stop offset=".469" style="stop-color:#2f5dc9"/><stop offset=".632" style="stop-color:#3156ca"/><stop offset="1" style="stop-color:#3154cb"/></linearGradient><path id="XMLID_55_" d="M501.1,506l-15.5-1.3L223.8,353.9c-5.3-3.1-14.6-2.7-20.7,0.9L12.3,465.3l-10.1-0.8v3.6 l0,0c-0.1,2,1,4,3.5,5.4l273.7,157.7c5.3,3.1,14.6,2.7,20.7-0.9l196-106.8c3.3-1.9,5-4.4,5-6.7l0,0L501.1,506z" class="st256"/><linearGradient id="XMLID_102_" x1="549.691" x2="-20.516" y1="483.725" y2="486.641" gradientUnits="userSpaceOnUse"><stop offset="0" style="stop-color:#17d1aa"/><stop offset=".142" style="stop-color:#19c9ac"/><stop offset=".368" style="stop-color:#1db2b2"/><stop offset=".648" style="stop-color:#258cbc"/><stop offset=".97" style="stop-color:#3059ca"/><stop offset="1" style="stop-color:#3154cb"/></linearGradient><path id="XMLID_54_" d="M279.5,627.2L5.7,469.5c-5.3-3.1-4.6-8.4,1.5-11.9l196-113.4c6.1-3.5,15.4-3.9,20.7-0.9 L497.6,501c5.3,3.1,4.6,8.4-1.5,11.9l-196,113.4C294,629.9,284.8,630.3,279.5,627.2z" class="st257"/><linearGradient id="XMLID_103_" x1="169.102" x2="424.668" y1="326.934" y2="623.72" gradientUnits="userSpaceOnUse"><stop offset="0" style="stop-color:#17d1aa"/><stop offset=".227" style="stop-color:#1cb9b0"/><stop offset=".704" style="stop-color:#297dc0"/><stop offset="1" style="stop-color:#3154cb"/></linearGradient><path id="XMLID_53_" d="M358.2,574.1L97.5,424c-2.3-1.3-2-3.7,0.7-5.3l109.5-63.5c2.7-1.6,6.8-1.7,9.1-0.4 l260.6,150.1c2.3,1.3,2.1,3.7-0.6,5.3l-109.5,63.5C364.6,575.3,360.5,575.4,358.2,574.1z" class="st258"/><linearGradient id="XMLID_104_" x1="172.714" x2="194.461" y1="465.347" y2="566.407" gradientUnits="userSpaceOnUse"><stop offset="0" style="stop-color:#17d1aa"/><stop offset=".227" style="stop-color:#1cb9b0"/><stop offset=".704" style="stop-color:#297dc0"/><stop offset="1" style="stop-color:#3154cb"/></linearGradient><path id="XMLID_39_" d="M189.5,562.8l-72.2-41.6c-1.2-0.7-1.1-2,0.3-2.8l58.4-33.9c1.4-0.8,3.6-0.9,4.9-0.2 l72.2,41.6c1.2,0.7,1.1,2-0.3,2.8l-58.4,33.9C192.9,563.4,190.8,563.5,189.5,562.8z" class="st259"/><path id="XMLID_38_" d="M97.5,424l1.3,0.8l108.9-63.1c2.7-1.6,6.8-1.7,9.1-0.4l259.3,149.4l0.7-0.4 c2.7-1.6,3-3.9,0.6-5.3L216.8,354.8c-2.3-1.3-6.4-1.2-9.1,0.4L98.2,418.7C95.5,420.3,95.2,422.6,97.5,424z" class="st54"/><path id="XMLID_37_" d="M117.3,521.2l2.1,1.2l56.7-32.9c1.4-0.8,3.6-0.9,4.9-0.2l70.1,40.4l1.7-1 c1.4-0.8,1.6-2.1,0.3-2.8L181,484.3c-1.2-0.7-3.4-0.6-4.9,0.2l-58.4,33.9C116.2,519.2,116.1,520.5,117.3,521.2z" class="st54"/><path id="XMLID_36_" d="M189.8,562.9L120.5,523c-1.2-0.7-2.3-1.2-1.2-1.7l14.2-8.2c0.4-0.2,1.6,0.2,2.8,0.9 l69.2,39.9c1.2,0.7,1.9,1.4,1.5,1.6l-14.4,8.3C192.3,563.9,191,563.6,189.8,562.9z" class="st56"/><g id="XMLID_30_"><linearGradient id="XMLID_105_" x1="436.875" x2="-74.806" y1="458.062" y2="-242.464" gradientUnits="userSpaceOnUse"><stop offset="0" style="stop-color:#17d1aa"/><stop offset=".205" style="stop-color:#1faab4"/><stop offset=".44" style="stop-color:#2785be"/><stop offset=".658" style="stop-color:#2c6ac5"/><stop offset=".852" style="stop-color:#305ac9"/><stop offset="1" style="stop-color:#3154cb"/></linearGradient><path id="XMLID_35_" d="M459.7,500.2L199.1,350.1c-2.3-1.3-4.2-5-4.2-8.1l-0.2-217.4c0-3.1,1.9-4.6,4.2-3.2 l260.6,150.1c2.3,1.3,4.2,5,4.2,8.1l0.2,217.4C464,500.1,462.1,501.6,459.7,500.2z" class="st260"/><g id="XMLID_31_"><linearGradient id="XMLID_106_" x1="434.677" x2="-135.456" y1="522.143" y2="-274.604" gradientUnits="userSpaceOnUse"><stop offset="0" style="stop-color:#1d45ba"/><stop offset="1" style="stop-color:#fff"/></linearGradient><path id="XMLID_32_" d="M429.9,522.2c-0.8,0-1.6-0.2-2.4-0.7L167,371.4c-2.8-1.6-4.9-5.7-4.9-9.3l-0.2-217.4 c0-2.1,0.8-3.8,2.1-4.6c1.2-0.7,2.7-0.6,4.1,0.2l260.6,150.1c2.8,1.6,4.9,5.7,4.9,9.3l0.2,217.4c0,2.1-0.8,3.8-2.1,4.6 C431.2,522.1,430.6,522.2,429.9,522.2z M165.8,142.3c-0.1,0-0.3,0-0.4,0.1c-0.4,0.2-0.8,0.9-0.8,2.3l0.2,217.4 c0,2.6,1.6,5.8,3.6,6.9l260.6,150.1c0.3,0.2,1,0.5,1.4,0.2c0.4-0.2,0.8-0.9,0.8-2.3L431,299.7c0-2.6-1.6-5.8-3.6-6.9 L166.8,142.7C166.5,142.5,166.1,142.3,165.8,142.3z" class="st405"/></g></g></g><g><linearGradient id="SVGID_1_" x1="362.479" x2="362.479" y1="395.188" y2="171.135" gradientUnits="userSpaceOnUse"><stop offset="0" style="stop-color:#3154cb;stop-opacity:0"/><stop offset="1" style="stop-color:#e1f2ff"/></linearGradient><polygon points="319 194 318.7 332 405.9 382.3 406.3 244.4" class="st1"/><linearGradient id="SVGID_2_" x1="351.44" x2="351.44" y1="399.919" y2="175.866" gradientUnits="userSpaceOnUse"><stop offset="0" style="stop-color:#3154cb;stop-opacity:0"/><stop offset="1" style="stop-color:#e1f2ff"/></linearGradient><polygon points="308 198.7 307.6 336.7 394.9 387.1 395.3 249.1" class="st2"/><g><path d="M300.1,209.8l-0.4,138l87.3,50.4l0.4-138L300.1,209.8z" class="st254"/><g class="st488"><linearGradient id="SVGID_3_" x1="340.587" x2="378.32" y1="325.56" y2="396.91" gradientUnits="userSpaceOnUse"><stop offset="0" style="stop-color:#17d1aa"/><stop offset=".227" style="stop-color:#1cb9b0"/><stop offset=".704" style="stop-color:#297dc0"/><stop offset="1" style="stop-color:#3154cb"/></linearGradient><path d="M378,369.7c0.6,0.4,1.1,1.2,1.1,1.9l0,11.9c0,0.7-0.5,1-1.1,0.7L348.4,367c-0.6-0.4-1.1-1.2-1.1-1.9 l0-11.9c0-0.7,0.5-1,1.1-0.6L378,369.7z" class="st3"/></g><g><linearGradient id="SVGID_4_" x1="308.165" x2="319.8" y1="340.77" y2="340.77" gradientUnits="userSpaceOnUse"><stop offset="0" style="stop-color:#3154cb;stop-opacity:0"/><stop offset="1" style="stop-color:#e1f2ff"/></linearGradient><path d="M308.3,339.1l11.2,6.3c0.1,0.1,0.2,0,0.2-0.1l0-2.3c0-0.2-0.1-0.4-0.3-0.5l-11.1-6.2 c-0.1-0.1-0.3,0-0.3,0.2l0,2.5C308.2,338.9,308.2,339,308.3,339.1z" class="st4"/></g><g><linearGradient id="SVGID_5_" x1="308.165" x2="319.8" y1="346.071" y2="346.071" gradientUnits="userSpaceOnUse"><stop offset="0" style="stop-color:#3154cb;stop-opacity:0"/><stop offset="1" style="stop-color:#e1f2ff"/></linearGradient><path d="M308.3,344.4l11.2,6.3c0.1,0.1,0.2,0,0.2-0.1l0-2.3c0-0.2-0.1-0.4-0.3-0.5l-11.1-6.2 c-0.1-0.1-0.3,0-0.3,0.2l0,2.5C308.2,344.2,308.2,344.3,308.3,344.4z" class="st5"/></g></g><g><path d="M413.9,295.9l-0.3,89.7l56.7,32.7l0.3-89.7L413.9,295.9z" class="st254"/><g class="st488"><linearGradient id="SVGID_6_" x1="440.206" x2="464.733" y1="371.187" y2="417.565" gradientUnits="userSpaceOnUse"><stop offset="0" style="stop-color:#17d1aa"/><stop offset=".227" style="stop-color:#1cb9b0"/><stop offset=".704" style="stop-color:#297dc0"/><stop offset="1" style="stop-color:#3154cb"/></linearGradient><path d="M464.6,399.9c0.4,0.2,0.7,0.8,0.7,1.3l0,7.7c0,0.5-0.3,0.7-0.7,0.4l-19.3-11.1c-0.4-0.2-0.7-0.8-0.7-1.3 l0-7.7c0-0.5,0.3-0.6,0.7-0.4L464.6,399.9z" class="st6"/></g><g class="st488"><linearGradient id="SVGID_7_" x1="445.327" x2="469.853" y1="368.479" y2="414.857" gradientUnits="userSpaceOnUse"><stop offset="0" style="stop-color:#17d1aa"/><stop offset=".227" style="stop-color:#1cb9b0"/><stop offset=".704" style="stop-color:#297dc0"/><stop offset="1" style="stop-color:#3154cb"/></linearGradient><path d="M464.6,387.5c0.4,0.2,0.7,0.8,0.7,1.3l0,7.7c0,0.5-0.3,0.6-0.7,0.4l-19.3-11.1c-0.4-0.2-0.7-0.8-0.7-1.3 l0-7.7c0-0.5,0.3-0.6,0.7-0.4L464.6,387.5z" class="st7"/></g><g><path d="M419.3,366.9l17,9.5c0.2,0.1,0.4,0,0.4-0.2l0-3.5c0-0.3-0.2-0.6-0.5-0.8l-16.7-9.4 c-0.2-0.1-0.4,0-0.4,0.2l0,3.8C419.1,366.7,419.2,366.9,419.3,366.9z" class="st815"/></g><g><path d="M419.3,374.9l17,9.5c0.2,0.1,0.4,0,0.4-0.2l0-3.5c0-0.3-0.2-0.6-0.5-0.8l-16.7-9.4 c-0.2-0.1-0.4,0-0.4,0.2l0,3.8C419.1,374.7,419.2,374.9,419.3,374.9z" class="st815"/></g><g><path d="M419.2,380l7.3,4.1c0.1,0,0.2,0,0.2-0.1l0-1.5c0-0.1-0.1-0.3-0.2-0.3l-7.2-4c-0.1,0-0.2,0-0.2,0.1 l0,1.6C419.1,379.9,419.2,379.9,419.2,380z" class="st815"/></g><g><path d="M419.2,383.4l7.3,4.1c0.1,0,0.2,0,0.2-0.1l0-1.5c0-0.1-0.1-0.3-0.2-0.3l-7.2-4c-0.1,0-0.2,0-0.2,0.1 l0,1.6C419.1,383.3,419.2,383.4,419.2,383.4z" class="st815"/></g><linearGradient id="SVGID_8_" x1="355.175" x2="355.175" y1="-40.452" y2="-89.997" gradientTransform="matrix(1.1013 0.6206 -2.245762e-02 1.1005 49.3353 208.9004)" gradientUnits="userSpaceOnUse"><stop offset="0" style="stop-color:#17d1aa"/><stop offset=".227" style="stop-color:#1cb9b0"/><stop offset=".704" style="stop-color:#297dc0"/><stop offset="1" style="stop-color:#3154cb"/></linearGradient><path d="M428.1,331.8c0.2-9,6.7-12.1,14.5-6.8c7.8,5.2,14.1,16.8,13.9,25.8c-0.2,9-6.7,12.1-14.5,6.8 C434.2,352.3,427.9,340.8,428.1,331.8z" class="st8"/><g><defs><ellipse id="SVGID_863_" cx="442.3" cy="341.2" rx="11.3" ry="20.7" transform="matrix(0.8683 -0.4961 0.4961 0.8683 -111.0241 264.3442)"/></defs><clipPath id="SVGID_9_"><use xlink:href="#SVGID_863_" style="overflow:visible"/></clipPath><g style="clip-path:url(#SVGID_9_)"><path d="M446.9,341.4c0,3.4-2.1,4.8-4.8,3.3c-2.6-1.5-4.8-5.5-4.8-8.8c0-3.4,2.1-4.8,4.8-3.3 C444.8,334.1,446.9,338.1,446.9,341.4L446.9,341.4z M446.9,341.4" class="st815"/><path d="M442.1,347.8c-4.8-2.8-8.6-0.1-8.6,6l17.3,10C450.8,357.7,446.9,350.5,442.1,347.8L442.1,347.8z M442.1,347.8" class="st815"/></g></g></g><g><path d="M244.7,214.8l-0.2,70.4l44.5,25.7l0.2-70.4L244.7,214.8z" class="st254"/><g class="st488"><linearGradient id="SVGID_10_" x1="265.357" x2="284.601" y1="273.894" y2="310.282" gradientUnits="userSpaceOnUse"><stop offset="0" style="stop-color:#17d1aa"/><stop offset=".227" style="stop-color:#1cb9b0"/><stop offset=".704" style="stop-color:#297dc0"/><stop offset="1" style="stop-color:#3154cb"/></linearGradient><path d="M284.5,296.4c0.3,0.2,0.6,0.6,0.6,1l0,6.1c0,0.4-0.3,0.5-0.6,0.3l-15.1-8.7c-0.3-0.2-0.6-0.6-0.6-1 l0-6.1c0-0.4,0.3-0.5,0.6-0.3L284.5,296.4z" class="st10"/></g><g class="st488"><linearGradient id="SVGID_11_" x1="269.374" x2="288.618" y1="271.769" y2="308.158" gradientUnits="userSpaceOnUse"><stop offset="0" style="stop-color:#17d1aa"/><stop offset=".227" style="stop-color:#1cb9b0"/><stop offset=".704" style="stop-color:#297dc0"/><stop offset="1" style="stop-color:#3154cb"/></linearGradient><path d="M284.5,286.7c0.3,0.2,0.6,0.6,0.6,1l0,6.1c0,0.4-0.3,0.5-0.6,0.3l-15.1-8.7c-0.3-0.2-0.6-0.6-0.6-1 l0-6.1c0-0.4,0.3-0.5,0.6-0.3L284.5,286.7z" class="st11"/></g><g><path d="M249,270.6l13.3,7.5c0.1,0.1,0.3,0,0.3-0.2l0-2.8c0-0.3-0.1-0.5-0.4-0.6l-13.1-7.4 c-0.1-0.1-0.3,0-0.3,0.2l0,3C248.8,270.4,248.9,270.5,249,270.6z" class="st815"/></g><g><path d="M249,276.8l13.3,7.5c0.1,0.1,0.3,0,0.3-0.2l0-2.8c0-0.3-0.1-0.5-0.4-0.6l-13.1-7.4 c-0.1-0.1-0.3,0-0.3,0.2l0,3C248.8,276.7,248.9,276.8,249,276.8z" class="st815"/></g><g><path d="M248.9,280.8l5.7,3.2c0.1,0,0.1,0,0.1-0.1l0-1.2c0-0.1-0.1-0.2-0.2-0.3l-5.6-3.2c-0.1,0-0.1,0-0.1,0.1 l0,1.3C248.8,280.7,248.8,280.8,248.9,280.8z" class="st815"/></g><g><path d="M248.9,283.5l5.7,3.2c0.1,0,0.1,0,0.1-0.1l0-1.2c0-0.1-0.1-0.2-0.2-0.3L249,282c-0.1,0-0.1,0-0.1,0.1 l0,1.3C248.8,283.4,248.8,283.5,248.9,283.5z" class="st815"/></g><linearGradient id="SVGID_12_" x1="196.149" x2="196.149" y1="-41.848" y2="-80.722" gradientTransform="matrix(1.1013 0.6206 -2.245762e-02 1.1005 49.3353 208.9004)" gradientUnits="userSpaceOnUse"><stop offset="0" style="stop-color:#17d1aa"/><stop offset=".227" style="stop-color:#1cb9b0"/><stop offset=".704" style="stop-color:#297dc0"/><stop offset="1" style="stop-color:#3154cb"/></linearGradient><path d="M255.8,243c0.1-7.1,5.2-9.5,11.4-5.3c6.2,4.1,11.1,13.2,10.9,20.2c-0.1,7.1-5.2,9.5-11.4,5.3 C260.6,259.1,255.7,250,255.8,243z" class="st12"/><g><defs><ellipse id="SVGID_868_" cx="267" cy="250.4" rx="8.9" ry="16.3" transform="matrix(0.8683 -0.4961 0.4961 0.8683 -89.0486 165.4224)"/></defs><clipPath id="SVGID_13_"><use xlink:href="#SVGID_868_" style="overflow:visible"/></clipPath><g style="clip-path:url(#SVGID_13_)"><path d="M270.6,250.5c0,2.6-1.7,3.8-3.7,2.6c-2.1-1.2-3.7-4.3-3.7-6.9s1.7-3.8,3.7-2.6 C268.9,244.8,270.6,247.9,270.6,250.5L270.6,250.5z M270.6,250.5" class="st815"/><path d="M266.9,255.5c-3.7-2.2-6.8-0.1-6.8,4.7l13.6,7.8C273.7,263.3,270.6,257.7,266.9,255.5L266.9,255.5z M266.9,255.5" class="st815"/></g></g></g></g><g id="XMLID_27_"><g id="arrows_3_"><g id="XMLID_29_"><linearGradient id="SVGID_14_" x1="308.285" x2="375.178" y1="277.508" y2="277.508" gradientUnits="userSpaceOnUse"><stop offset="0" style="stop-color:#3154cb;stop-opacity:0"/><stop offset="1" style="stop-color:#e1f2ff"/></linearGradient><path d="M365.8,303.7l9.4,1.7c-3.2-14.3-9.8-26.5-19.7-36.6c-13.6-13.9-25.9-17.7-36.7-11.3l-1.2,0.7l-3.8-5.8 c-0.3-0.4-0.5-0.8-0.8-1.2c-0.6-1-1.2-1.4-1.5-1.5c0,0.1-0.1,0.2-0.1,0.4c-0.3,1.7-0.5,3.5-0.7,5.2l-0.9,6.6 c-0.5,3.9-1,7.8-1.6,11.6c-0.2,1.6,0.4,3.1,1.5,3.8c0.2,0.1,0.4,0.2,0.7,0.3c4.1,0.8,8.3,1.5,12.4,2.2l8.8,1.6 c0.1,0,0.1,0,0.2,0c0,0,0,0,0,0c0.1-0.6-0.2-1.5-0.9-2.5c-0.9-1.4-1.8-2.8-2.8-4.2l-2.1-3.1l1.3-0.8c6-3.9,13-2.8,20.7,3.3 C357.5,281.3,363.4,291.2,365.8,303.7z" class="st14"/><linearGradient id="SVGID_15_" x1="312.759" x2="378.826" y1="315.999" y2="315.999" gradientUnits="userSpaceOnUse"><stop offset="0" style="stop-color:#3154cb;stop-opacity:0"/><stop offset="1" style="stop-color:#e1f2ff"/></linearGradient><path d="M368.6,336.4l1.2-0.7l1.8,2.8c0.8,1.2,1.6,2.5,2.5,3.8c0.5,0.8,1,1.3,1.5,1.5c0-0.1,0.1-0.2,0.1-0.4 c0.8-6,1.6-11.9,2.4-17.9l0.7-5.3c0-0.1,0-0.2,0-0.4c0.2-1.2-0.2-2.1-0.6-2.7c-0.5-0.7-1.2-1.2-2-1.3 c-3.2-0.6-6.5-1.1-9.7-1.7l-6.8-1.2c-1.5-0.3-2.9-0.5-4.4-0.8c-0.1,0-0.1,0-0.2,0c-0.1,0.7,0.2,1.5,0.9,2.6 c1,1.5,1.9,2.9,2.9,4.5l2.2,3.4l-1.4,0.8c-6,3.4-12.8,2.1-20.2-3.7c-9.2-7.3-15-17.2-17.4-29.6l-9.4-1.7 c3.1,13.8,9.5,25.8,18.9,35.7C345.2,338.2,357.6,342.4,368.6,336.4z" class="st15"/></g></g><g id="arrows_2_"><g id="XMLID_28_"><linearGradient id="SVGID_16_" x1="306.913" x2="373.806" y1="278.661" y2="278.661" gradientUnits="userSpaceOnUse"><stop offset="0" style="stop-color:#17d1aa"/><stop offset=".227" style="stop-color:#1cb9b0"/><stop offset=".704" style="stop-color:#297dc0"/><stop offset="1" style="stop-color:#3154cb"/></linearGradient><path d="M364.5,304.8l9.4,1.7c-3.2-14.3-9.8-26.5-19.7-36.6c-13.6-13.9-25.9-17.7-36.7-11.3l-1.2,0.7l-3.8-5.8 c-0.3-0.4-0.5-0.8-0.8-1.2c-0.6-1-1.2-1.4-1.5-1.5c0,0.1-0.1,0.2-0.1,0.4c-0.3,1.7-0.5,3.5-0.7,5.2l-0.9,6.6 c-0.5,3.9-1,7.8-1.6,11.6c-0.2,1.6,0.4,3.1,1.5,3.8c0.2,0.1,0.4,0.2,0.7,0.3c4.1,0.8,8.3,1.5,12.4,2.2l8.8,1.6 c0.1,0,0.1,0,0.2,0c0,0,0,0,0,0c0.1-0.6-0.2-1.5-0.9-2.5c-0.9-1.4-1.8-2.8-2.8-4.2l-2.1-3.1l1.3-0.8c6-3.9,13-2.8,20.7,3.3 C356.1,282.4,362,292.4,364.5,304.8z" class="st16"/><linearGradient id="SVGID_17_" x1="311.387" x2="377.454" y1="317.152" y2="317.152" gradientUnits="userSpaceOnUse"><stop offset="0" style="stop-color:#17d1aa"/><stop offset=".227" style="stop-color:#1cb9b0"/><stop offset=".704" style="stop-color:#297dc0"/><stop offset="1" style="stop-color:#3154cb"/></linearGradient><path d="M367.2,337.6l1.2-0.7l1.8,2.8c0.8,1.2,1.6,2.5,2.5,3.8c0.5,0.8,1,1.3,1.5,1.5c0-0.1,0.1-0.2,0.1-0.4 c0.8-6,1.6-11.9,2.4-17.9l0.7-5.3c0-0.1,0-0.2,0-0.4c0.2-1.2-0.2-2.1-0.6-2.7c-0.5-0.7-1.2-1.2-2-1.3 c-3.2-0.6-6.5-1.1-9.7-1.7l-6.8-1.2c-1.5-0.3-2.9-0.5-4.4-0.8c-0.1,0-0.1,0-0.2,0c-0.1,0.7,0.2,1.5,0.9,2.6 c1,1.5,1.9,2.9,2.9,4.5l2.2,3.4l-1.4,0.8c-6,3.4-12.8,2.1-20.2-3.7c-9.2-7.3-15-17.2-17.4-29.6l-9.4-1.7 c3.1,13.8,9.5,25.8,18.9,35.7C343.8,339.3,356.3,343.5,367.2,337.6z" class="st17"/></g></g></g><g><g><path d="M347.9,309.5l-3.2-10.9l-8.1-5c-0.9,2.3-2.1,5.1-3.1,7.4c-0.1,0.1-0.3,0.2-0.5,0 c-0.3-0.2-0.4-0.3-0.4-0.6v-0.1l7.1-17.2c0.2-0.4,0.7-0.7,1.2-0.4c0.6,0.3,0.8,1,1,1.6l6.8,24.6c0.1,0.5,0.4,1.1-0.1,1.2 C348.3,310.3,348,309.9,347.9,309.5z M341.2,285.4c-0.3-1.1-0.6-1.4-0.9-0.7l-3.3,8.2l7.4,4.5L341.2,285.4z" class="st826"/></g><path d="M348.7,301.2l-15.6-9.6c-0.2-0.1-0.3-0.3-0.3-0.5v-0.5c0-0.2,0.1-0.3,0.3-0.2l15.6,9.6 c0.2,0.1,0.3,0.3,0.3,0.5v0.5C349,301.2,348.9,301.3,348.7,301.2z" class="st826"/><path d="M347.3,296.1l-12.8-7.8c-0.2-0.1-0.3-0.3-0.3-0.5v-0.5c0-0.2,0.1-0.3,0.3-0.2l12.8,7.8 c0.2,0.1,0.3,0.3,0.3,0.5v0.5C347.6,296.1,347.4,296.2,347.3,296.1z" class="st826"/></g><g><g><g><linearGradient id="SVGID_18_" x1="-1958.867" x2="-1928.743" y1="330.05" y2="307.668" gradientTransform="matrix(-1 -0.1468 0 1 -1725.5786 -168.6791)" gradientUnits="userSpaceOnUse"><stop offset=".001" style="stop-color:#d7f2ff"/><stop offset=".211" style="stop-color:#daf2ff"/><stop offset=".336" style="stop-color:#e1f2ff"/><stop offset="1" style="stop-color:#c6f2ff"/></linearGradient><polygon style="opacity:.96;fill:url(#SVGID_18_)" points="183.7 458.1 200.9 467.8 217.4 462.3 217.4 381.5 200.1 373.9 183.7 377.3"/><linearGradient id="SVGID_19_" x1="-1956.758" x2="-1910.364" y1="299.789" y2="319.703" gradientTransform="matrix(-1 -0.1468 0 1 -1725.5786 -168.6791)" gradientUnits="userSpaceOnUse"><stop offset="0" style="stop-color:#3154cb"/><stop offset=".148" style="stop-color:#305ac9"/><stop offset=".342" style="stop-color:#2c6ac5"/><stop offset=".56" style="stop-color:#2785be"/><stop offset=".795" style="stop-color:#1faab4"/><stop offset="1" style="stop-color:#17d1aa"/></linearGradient><polygon style="opacity:.5;fill:url(#SVGID_19_)" points="200.9 467.8 200.9 386.9 217.4 381.5 217.4 462.3"/><polygon points="183.7 377.3 200.9 386.9 217.4 381.5 200.1 371.8" class="st56"/></g><g><linearGradient id="SVGID_20_" x1="-1995.107" x2="-1958.79" y1="334.498" y2="307.515" gradientTransform="matrix(-1 -0.1468 0 1 -1725.5786 -168.6791)" gradientUnits="userSpaceOnUse"><stop offset=".001" style="stop-color:#d7f2ff"/><stop offset=".211" style="stop-color:#daf2ff"/><stop offset=".336" style="stop-color:#e1f2ff"/><stop offset="1" style="stop-color:#c6f2ff"/></linearGradient><polygon style="opacity:.96;fill:url(#SVGID_20_)" points="213.2 474.8 230.4 484.4 246.9 479 246.9 372.4 229.6 364.7 213.2 368.1"/><linearGradient id="SVGID_21_" x1="-1990.737" x2="-1934.927" y1="297.307" y2="321.263" gradientTransform="matrix(-1 -0.1468 0 1 -1725.5786 -168.6791)" gradientUnits="userSpaceOnUse"><stop offset="0" style="stop-color:#3154cb"/><stop offset=".148" style="stop-color:#305ac9"/><stop offset=".342" style="stop-color:#2c6ac5"/><stop offset=".56" style="stop-color:#2785be"/><stop offset=".795" style="stop-color:#1faab4"/><stop offset="1" style="stop-color:#17d1aa"/></linearGradient><polygon style="opacity:.5;fill:url(#SVGID_21_)" points="230.4 484.4 230.4 377.8 246.9 372.4 246.9 479"/><polygon points="213.2 368.1 230.4 377.8 246.9 372.4 229.6 362.7" class="st56"/></g><g><linearGradient id="SVGID_22_" x1="-2032.596" x2="-1988.938" y1="337.484" y2="305.045" gradientTransform="matrix(-1 -0.1468 0 1 -1725.5786 -168.6791)" gradientUnits="userSpaceOnUse"><stop offset=".001" style="stop-color:#d7f2ff"/><stop offset=".211" style="stop-color:#daf2ff"/><stop offset=".336" style="stop-color:#e1f2ff"/><stop offset="1" style="stop-color:#c6f2ff"/></linearGradient><polygon style="opacity:.96;fill:url(#SVGID_22_)" points="242.7 491.4 259.9 501.1 276.4 495.7 276.4 358.5 259.2 350.8 242.7 354.2"/><linearGradient id="SVGID_23_" x1="-2025.546" x2="-1958.574" y1="292.077" y2="320.825" gradientTransform="matrix(-1 -0.1468 0 1 -1725.5786 -168.6791)" gradientUnits="userSpaceOnUse"><stop offset="0" style="stop-color:#3154cb"/><stop offset=".148" style="stop-color:#305ac9"/><stop offset=".342" style="stop-color:#2c6ac5"/><stop offset=".56" style="stop-color:#2785be"/><stop offset=".795" style="stop-color:#1faab4"/><stop offset="1" style="stop-color:#17d1aa"/></linearGradient><polygon style="opacity:.5;fill:url(#SVGID_23_)" points="259.9 501.1 259.9 363.9 276.4 358.5 276.4 495.7"/><polygon points="242.7 354.2 259.9 363.9 276.4 358.5 259.2 348.8" class="st56"/></g><g><linearGradient id="SVGID_24_" x1="-2054.597" x2="-2017.83" y1="358.605" y2="331.287" gradientTransform="matrix(-1 -0.1468 0 1 -1725.5786 -168.6791)" gradientUnits="userSpaceOnUse"><stop offset=".001" style="stop-color:#d7f2ff"/><stop offset=".211" style="stop-color:#daf2ff"/><stop offset=".336" style="stop-color:#e1f2ff"/><stop offset="1" style="stop-color:#c6f2ff"/></linearGradient><polyline style="opacity:.96;fill:url(#SVGID_24_)" points="305.9 483.8 305.9 403.8 288.7 396.2 272.2 399.6 272.2 508.1 289.4 517.8 305.9 512.3 305.9 483.8"/><linearGradient id="SVGID_25_" x1="-2050.063" x2="-1993.569" y1="320.91" y2="345.16" gradientTransform="matrix(-1 -0.1468 0 1 -1725.5786 -168.6791)" gradientUnits="userSpaceOnUse"><stop offset="0" style="stop-color:#3154cb"/><stop offset=".148" style="stop-color:#305ac9"/><stop offset=".342" style="stop-color:#2c6ac5"/><stop offset=".56" style="stop-color:#2785be"/><stop offset=".795" style="stop-color:#1faab4"/><stop offset="1" style="stop-color:#17d1aa"/></linearGradient><polygon style="opacity:.5;fill:url(#SVGID_25_)" points="289.4 517.8 289.4 409.3 305.9 403.8 305.9 512.3"/><polygon points="272.2 399.6 289.4 409.3 305.9 403.8 288.7 394.2" class="st56"/></g><g><linearGradient id="SVGID_26_" x1="303.264" x2="333.975" y1="428.219" y2="532.687" gradientUnits="userSpaceOnUse"><stop offset=".001" style="stop-color:#d7f2ff"/><stop offset=".211" style="stop-color:#daf2ff"/><stop offset=".336" style="stop-color:#e1f2ff"/><stop offset="1" style="stop-color:#c6f2ff"/></linearGradient><polygon style="opacity:.96;fill:url(#SVGID_26_)" points="301.7 524.8 318.9 534.4 335.4 529 335.4 435.4 318.2 427.7 301.7 431.1"/><linearGradient id="SVGID_27_" x1="318.832" x2="335.815" y1="432.243" y2="540.236" gradientUnits="userSpaceOnUse"><stop offset="0" style="stop-color:#3154cb"/><stop offset=".148" style="stop-color:#305ac9"/><stop offset=".342" style="stop-color:#2c6ac5"/><stop offset=".56" style="stop-color:#2785be"/><stop offset=".795" style="stop-color:#1faab4"/><stop offset="1" style="stop-color:#17d1aa"/></linearGradient><polygon style="opacity:.5;fill:url(#SVGID_27_)" points="318.9 534.4 318.9 440.8 335.4 435.4 335.4 529"/><polygon points="301.7 431.1 318.9 440.8 335.4 435.4 318.2 425.7" class="st56"/></g></g></g></g></g></switch></svg>