<svg xmlns="http://www.w3.org/2000/svg" xmlns:xlink="http://www.w3.org/1999/xlink" width="24" height="24" version="1.1" viewBox="0 0 24 24"><title>favicon/erg-nightly</title><defs><linearGradient id="linearGradient-1" x1="-40.028%" x2="140.037%" y1="49.997%" y2="49.997%"><stop offset="0%" stop-color="#1A44B6"/><stop offset="100%" stop-color="#4660FF"/></linearGradient><linearGradient id="linearGradient-2" x1="-.01%" x2="99.991%" y1="50.005%" y2="50.005%"><stop offset="0%" stop-color="#1A44B6"/><stop offset="100%" stop-color="#4660FF"/></linearGradient></defs><g id="favicon/erg-nightly" fill="none" fill-rule="evenodd" stroke="none" stroke-width="1"><g id="Group-10" transform="translate(2.500000, 2.000000)"><path id="Fill-4" fill="url(#linearGradient-1)" d="M6.23157895,0.450676692 C6.18045113,0.452180451 6.12932331,0.462706767 6.07969925,0.482255639 L6.07969925,0.482255639 C2.30075188,2.0281203 0.0135338346,5.63864662 -0.0015037594,9.45067669 L-0.0015037594,9.45067669 L-0.0015037594,9.54090226 C0.00601503759,10.7604511 0.245112782,11.9965414 0.742857143,13.1920301 L0.742857143,13.1920301 C2.29924812,16.9348872 5.93984962,19.1995489 9.78045113,19.2206015 L9.78045113,19.2206015 L9.90075188,19.2206015 C11.124812,19.2100752 12.3669173,18.973985 13.5684211,18.4822556 L13.5684211,18.4822556 C15.8556391,17.5469173 17.7007519,15.7935338 18.7398496,13.5664662 L18.7398496,13.5664662 C18.8120301,13.4100752 18.7819549,13.2266165 18.6631579,13.1018045 L18.6631579,13.1018045 C18.5413534,12.9784962 18.3593985,12.9393985 18.1984962,13.0070677 L18.1984962,13.0070677 C13.6255639,14.8882707 8.37593985,12.7409023 6.47669173,8.20706767 L6.47669173,8.20706767 C5.50827068,5.90481203 5.56541353,3.30781955 6.62706767,1.04766917 L6.62706767,1.04766917 C6.72481203,0.838646617 6.63458647,0.589022556 6.42556391,0.489774436 L6.42556391,0.489774436 C6.37142857,0.467218045 6.31278195,0.452180451 6.2556391,0.450676692 L6.2556391,0.450676692 L6.23157895,0.450676692 Z"/><polygon id="Fill-7" fill="url(#linearGradient-2)" points="10.111 .693 10.111 2.189 13.216 5.426 10.096 8.88 10.096 10.374 17.107 10.374 17.107 8.88 12.143 8.88 15.293 5.412 12.215 2.189 17.107 2.189 17.107 .693"/></g></g></svg>