<svg xmlns="http://www.w3.org/2000/svg" xmlns:xlink="http://www.w3.org/1999/xlink" id="Layer_1" x="0" y="0" version="1.1" viewBox="0 0 1440 1024" xml:space="preserve" style="enable-background:new 0 0 1440 1024"><style type="text/css">.st0{clip-path:url(#SVGID_2_)}.st1{fill:url(#SVGID_3_)}.st2{fill:url(#SVGID_4_)}.st3{fill:url(#SVGID_5_)}</style><title>add wallet_bg</title><g id="add_wallet"><g><g><defs><rect id="SVGID_1_" width="1440.4" height="948.5" y="0"/></defs><clipPath id="SVGID_2_"><use xlink:href="#SVGID_1_" style="overflow:visible"/></clipPath><g class="st0"><linearGradient id="SVGID_3_" x1="-288.885" x2="1430.534" y1="-490.522" y2="-502.253" gradientTransform="matrix(0.97 -0.28 0.45 1.18 418.1941 1015.0112)" gradientUnits="userSpaceOnUse"><stop offset="0" style="stop-color:#1d45ba"/><stop offset=".06" style="stop-color:#1f47bc"/><stop offset=".55" style="stop-color:#2c51c7"/><stop offset="1" style="stop-color:#3154cb"/></linearGradient><path d="M1440,0v264.8L405.9,861.1c-7.5,4.2-19.3,9.4-27.8,8.2c-8.8-1.2-37.7-18-37.7-18L0,657.5V0.7L1440,0z" class="st1"/><linearGradient id="SVGID_4_" x1="-296.293" x2="1430.617" y1="-557.419" y2="-569.2" gradientTransform="matrix(0.97 -0.28 0.45 1.18 418.1941 1015.0112)" gradientUnits="userSpaceOnUse"><stop offset="0" style="stop-color:#3154cb"/><stop offset=".1" style="stop-color:#3154cb;stop-opacity:.97"/><stop offset=".25" style="stop-color:#3154cb;stop-opacity:.87"/><stop offset=".43" style="stop-color:#3154cb;stop-opacity:.71"/><stop offset=".63" style="stop-color:#3154cb;stop-opacity:.49"/><stop offset=".85" style="stop-color:#3154cb;stop-opacity:.21"/><stop offset="1" style="stop-color:#3154cb;stop-opacity:0"/></linearGradient><path d="M1440,0l0.2,99.3L369.8,716.9c-7.5,4.2-19.3,9.4-27.8,8.2c-8.8-1.2-37.7-18-37.7-18L-71.6,493l1.5-492.4 L1440,0z" class="st2"/><linearGradient id="SVGID_5_" x1="-251.905" x2="1432.719" y1="-711.587" y2="-723.079" gradientTransform="matrix(0.97 -0.28 0.45 1.18 418.1941 1015.0112)" gradientUnits="userSpaceOnUse"><stop offset="0" style="stop-color:#4968d6"/><stop offset=".1" style="stop-color:#4565d4;stop-opacity:.95"/><stop offset=".42" style="stop-color:#3b5ccf;stop-opacity:.81"/><stop offset=".69" style="stop-color:#3457cc;stop-opacity:.73"/><stop offset=".88" style="stop-color:#3255cb;stop-opacity:.7"/><stop offset=".89" style="stop-color:#3255cb;stop-opacity:.61"/><stop offset=".92" style="stop-color:#3154cb;stop-opacity:.44"/><stop offset=".95" style="stop-color:#3154cb;stop-opacity:.31"/><stop offset=".98" style="stop-color:#3154cb;stop-opacity:.23"/><stop offset="1" style="stop-color:#3154cb;stop-opacity:.2"/></linearGradient><path d="M1370.8-194.1l5.3,120.9l-1033.8,596c-7.5,4.2-19.3,9.4-27.8,8.2c-8.8-1.2-37.7-18-37.7-18L-99,298.9 l1.5-492.3L1370.8-194.1z" class="st3"/></g></g></g></g></svg>