<svg xmlns="http://www.w3.org/2000/svg" xmlns:xlink="http://www.w3.org/1999/xlink" width="60" height="59" version="1.1" viewBox="0 0 60 59"><title>CNY</title><desc>Created with Sketch.</desc><defs><rect id="path-1" width="38" height="37.905" x="0" y="0" rx="18.952"/><filter id="filter-2" width="192.1%" height="192.3%" x="-46.1%" y="-40.9%" filterUnits="objectBoundingBox"><feOffset dx="0" dy="2" in="SourceAlpha" result="shadowOffsetOuter1"/><feGaussianBlur in="shadowOffsetOuter1" result="shadowBlurOuter1" stdDeviation="5.5"/><feColorMatrix in="shadowBlurOuter1" type="matrix" values="0 0 0 0 0 0 0 0 0 0 0 0 0 0 0 0 0 0 0.05 0"/></filter><circle id="path-3" cx="9" cy="9" r="9"/><circle id="path-5" cx="9" cy="9" r="9"/></defs><g id="*Feature---multicurrencies-1.9.0" fill="none" fill-rule="evenodd" stroke="none" stroke-width="1"><g id="general-setting" transform="translate(-65.000000, -1091.000000)"><g id="dropdown" transform="translate(60.000000, 703.000000)"><g id="cny" transform="translate(16.000000, 395.000000)"><g id="CNY" transform="translate(0.000000, 1.994987)"><g id="Rectangle-11-Copy"><use fill="#000" fill-opacity="1" filter="url(#filter-2)" xlink:href="#path-1"/><use fill="#F0F3F5" fill-rule="evenodd" xlink:href="#path-1"/></g><g id="chinese" transform="translate(10.000000, 10.000000)"><mask id="mask-4" fill="#fff"><use xlink:href="#path-3"/></mask><g id="if_57_Ensign_Flag_Nation_china_2634487-Copy-3-Clipped" mask="url(#mask-4)"><mask id="mask-6" fill="#fff"><use xlink:href="#path-5"/></mask><g id="if_57_Ensign_Flag_Nation_china_2634487-Copy-3" mask="url(#mask-6)"><polygon id="XMLID_7_" fill="#CB2127" points="0 0 31.5 0 31.5 18 0 18"/><polygon id="XMLID_6_" fill="#F7DE28" points="3.111 6.75 3.637 5.033 2.25 3.967 3.966 3.961 4.503 2.25 5.034 3.961 6.75 3.967 5.363 5.033 5.889 6.75 4.503 5.69"/><polygon id="XMLID_5_" fill="#F7DE28" points="7.976 7.09 8.798 7.407 9.365 6.75 9.303 7.611 10.125 7.935 9.264 8.147 9.202 9 8.728 8.275 7.875 8.479 8.441 7.815"/><polygon id="XMLID_4_" fill="#F7DE28" points="12.375 3.884 11.518 3.74 11.105 4.5 10.982 3.641 10.125 3.489 10.906 3.109 10.783 2.25 11.395 2.873 12.176 2.493 11.77 3.261"/><polygon id="XMLID_3_" fill="#F7DE28" points="10.555 7.875 10.82 7.019 10.125 6.489 10.986 6.489 11.25 5.625 11.514 6.489 12.375 6.489 11.68 7.019 11.945 7.875 11.25 7.352"/><polygon id="XMLID_2_" fill="#F7DE28" points="8.044 1.398 8.843 1.754 9.442 1.125 9.334 1.981 10.125 2.352 9.265 2.519 9.157 3.375 8.735 2.617 7.875 2.784 8.466 2.148"/></g></g></g><ellipse id="Oval" cx="19" cy="18.98" stroke="#4A4A4A" stroke-opacity=".3" stroke-width=".5" rx="9.167" ry="9.144"/></g></g></g></g></g></svg>