<svg xmlns="http://www.w3.org/2000/svg" xmlns:xlink="http://www.w3.org/1999/xlink" width="42" height="42" version="1.1" viewBox="0 0 42 42"><title>Eth</title><desc>Created with Sketch.</desc><defs><rect id="path-1" width="38" height="38" x="0" y="0" rx="8"/><filter id="filter-2" width="192.1%" height="192.1%" x="-46.1%" y="-40.8%" filterUnits="objectBoundingBox"><feOffset dx="0" dy="2" in="SourceAlpha" result="shadowOffsetOuter1"/><feGaussianBlur in="shadowOffsetOuter1" result="shadowBlurOuter1" stdDeviation="5.5"/><feColorMatrix in="shadowBlurOuter1" type="matrix" values="0 0 0 0 0 0 0 0 0 0 0 0 0 0 0 0 0 0 0.05 0"/></filter></defs><g id="Eth" fill="none" fill-rule="evenodd" stroke="none" stroke-width="1"><g id="eth" transform="translate(2.000000, 2.000000)"><g id="Rectangle-11-Copy"><use fill="#000" fill-opacity="1" filter="url(#filter-2)" xlink:href="#path-1"/><use fill="#F0F3F5" fill-rule="evenodd" xlink:href="#path-1"/></g><g id="Ethereum_logo_2014-Copy" fill="#62688F" fill-rule="nonzero" transform="translate(14.000000, 10.000000)"><g id="Group-2"><polygon id="Shape" points="5.398 0 5.28 .401 5.28 12.031 5.398 12.148 10.797 8.957"/><polygon id="Shape" points="5.398 0 0 8.957 5.398 12.148 5.398 6.504"/><polygon id="Shape" points="5.398 13.17 5.332 13.251 5.332 17.394 5.398 17.588 10.8 9.981"/><polygon id="Shape" points="5.398 17.588 5.398 13.17 0 9.981"/><polygon id="Shape" points="5.398 12.148 10.797 8.957 5.398 6.504"/><polygon id="Shape" points="0 8.957 5.398 12.148 5.398 6.504"/></g></g></g></g></svg>