<svg xmlns="http://www.w3.org/2000/svg" xmlns:xlink="http://www.w3.org/1999/xlink" width="42" height="42" version="1.1" viewBox="0 0 42 42"><title>Euro</title><desc>Created with Sketch.</desc><defs><rect id="path-1" width="38" height="38" x="0" y="0" rx="19"/><filter id="filter-2" width="192.1%" height="192.1%" x="-46.1%" y="-40.8%" filterUnits="objectBoundingBox"><feOffset dx="0" dy="2" in="SourceAlpha" result="shadowOffsetOuter1"/><feGaussianBlur in="shadowOffsetOuter1" result="shadowBlurOuter1" stdDeviation="5.5"/><feColorMatrix in="shadowBlurOuter1" type="matrix" values="0 0 0 0 0 0 0 0 0 0 0 0 0 0 0 0 0 0 0.05 0"/></filter><circle id="path-3" cx="9" cy="9" r="9"/></defs><g id="Euro" fill="none" fill-rule="evenodd" stroke="none" stroke-width="1"><g id="euro" transform="translate(2.000000, 2.000000)"><g id="Rectangle-11-Copy"><use fill="#000" fill-opacity="1" filter="url(#filter-2)" xlink:href="#path-1"/><use fill="#F0F3F5" fill-rule="evenodd" xlink:href="#path-1"/></g><g transform="translate(10.000000, 10.000000)"><mask id="mask-4" fill="#fff"><use xlink:href="#path-3"/></mask><circle cx="9" cy="9" r="9.25" stroke="#4A4A4A" stroke-opacity=".3" stroke-width=".5"/><g id="european-union" mask="url(#mask-4)"><path id="Path" fill="#214391" d="M8.99373418,0 L8.99373418,17.9877342 C13.9610886,17.9877342 17.9877342,13.9610506 17.9877342,8.994 C17.9877342,4.02653165 13.9610506,0 8.99373418,0 Z"/><path id="Path" fill="#2B479D" d="M8.99373418,0 C4.02668354,0 0,4.02653165 0,8.994 C0,13.9610506 4.02668354,17.9877342 8.99373418,17.9877342 C13.9610506,17.9877342 13.9610506,0 8.99373418,0 Z"/><g id="Group" fill="#F8D12E" transform="translate(1.670886, 1.556962)"><polygon id="Path" points="7.308 .003 7.527 .678 8.237 .678 7.663 1.095 7.882 1.77 7.308 1.353 6.733 1.77 6.953 1.095 6.378 .678 7.088 .678"/><polygon id="Path" points="7.308 12.748 7.527 13.423 8.237 13.423 7.663 13.84 7.882 14.515 7.308 14.098 6.733 14.515 6.953 13.84 6.378 13.423 7.088 13.423"/><polygon id="Path" points="10.805 1.132 11.025 1.808 11.735 1.808 11.16 2.225 11.38 2.9 10.805 2.483 10.231 2.9 10.45 2.225 9.876 1.808 10.586 1.808"/><polygon id="Path" points="13.192 3.487 13.411 4.162 14.121 4.162 13.547 4.579 13.766 5.255 13.192 4.837 12.617 5.255 12.837 4.579 12.262 4.162 12.972 4.162"/><polygon id="Path" points="13.249 9.436 13.468 10.111 14.178 10.111 13.603 10.528 13.823 11.203 13.249 10.786 12.674 11.203 12.894 10.528 12.319 10.111 13.029 10.111"/><polygon id="Path" points="1.51 3.487 1.729 4.162 2.439 4.162 1.865 4.579 2.084 5.255 1.51 4.837 .935 5.255 1.155 4.579 .58 4.162 1.29 4.162"/><polygon id="Path" points="13.745 6.324 13.964 6.999 14.674 6.999 14.1 7.416 14.319 8.092 13.745 7.674 13.17 8.092 13.39 7.416 12.815 6.999 13.525 6.999"/><polygon id="Path" points=".967 6.324 1.186 6.999 1.896 6.999 1.322 7.416 1.542 8.092 .967 7.674 .393 8.092 .612 7.416 .038 6.999 .748 6.999"/><polygon id="Path" points="1.433 9.436 1.652 10.111 2.362 10.111 1.788 10.528 2.007 11.203 1.433 10.786 .858 11.203 1.078 10.528 .503 10.111 1.213 10.111"/><polygon id="Path" points="10.908 11.891 11.128 12.566 11.838 12.566 11.263 12.983 11.483 13.658 10.908 13.241 10.334 13.658 10.553 12.983 9.979 12.566 10.689 12.566"/><polygon id="Path" points="3.923 1.132 4.142 1.808 4.852 1.808 4.278 2.225 4.497 2.9 3.923 2.483 3.349 2.9 3.568 2.225 2.994 1.808 3.704 1.808"/><polygon id="Path" points="3.664 11.847 3.883 12.523 4.593 12.523 4.019 12.94 4.238 13.615 3.664 13.198 3.09 13.615 3.309 12.94 2.735 12.523 3.445 12.523"/></g></g></g></g></g></svg>