<svg xmlns="http://www.w3.org/2000/svg" xmlns:xlink="http://www.w3.org/1999/xlink" width="60" height="59" version="1.1" viewBox="0 0 60 59"><title>KRW</title><desc>Created with Sketch.</desc><defs><rect id="path-1" width="38" height="37.905" x="0" y="0" rx="18.952"/><filter id="filter-2" width="192.1%" height="192.3%" x="-46.1%" y="-40.9%" filterUnits="objectBoundingBox"><feOffset dx="0" dy="2" in="SourceAlpha" result="shadowOffsetOuter1"/><feGaussianBlur in="shadowOffsetOuter1" result="shadowBlurOuter1" stdDeviation="5.5"/><feColorMatrix in="shadowBlurOuter1" type="matrix" values="0 0 0 0 0 0 0 0 0 0 0 0 0 0 0 0 0 0 0.05 0"/></filter><circle id="path-3" cx="9" cy="9" r="9"/></defs><g id="*Feature---multicurrencies-1.9.0" fill="none" fill-rule="evenodd" stroke="none" stroke-width="1"><g id="general-setting" transform="translate(-65.000000, -1038.000000)"><g id="dropdown" transform="translate(60.000000, 703.000000)"><g id="KRW"><g transform="translate(16.000000, 341.142857) translate(0.000000, 1.994987)"><g id="Rectangle-11-Copy"><use fill="#000" fill-opacity="1" filter="url(#filter-2)" xlink:href="#path-1"/><use fill="#F0F3F5" fill-rule="evenodd" xlink:href="#path-1"/></g><g id="icon/korean-language" transform="translate(9.000000, 9.000000)"><g id="korean" transform="translate(1.000000, 1.000000)"><mask id="mask-4" fill="#fff"><use xlink:href="#path-3"/></mask><g id="Group" mask="url(#mask-4)"><g transform="translate(-5.000000, -0.137845)"><polygon id="Rectangle" fill="#FFF" points="0 .018 28 .018 28 17.987 0 17.987"/><polygon id="Rectangle" fill="#010101" points="18.412 3.76 19.081 3.772 19.116 5.591 18.446 5.578" transform="translate(18.763772, 4.675003) rotate(-33.683711) translate(-18.763772, -4.675003)"/><polygon id="Rectangle" fill="#010101" points="19.641 5.522 20.311 5.535 20.345 7.353 19.676 7.341" transform="translate(19.993219, 6.437538) rotate(-33.688478) translate(-19.993219, -6.437538)"/><polygon id="Rectangle" fill="#010101" points="19.856 3.021 20.525 3.033 20.601 7.005 19.931 6.993" transform="translate(20.228279, 5.013216) rotate(-33.683711) translate(-20.228279, -5.013216)"/><polygon id="Rectangle" fill="#010101" points="20.114 2.671 20.783 2.684 20.818 4.502 20.148 4.49" transform="translate(20.465678, 3.586722) rotate(-33.688478) translate(-20.465678, -3.586722)"/><polygon id="Rectangle" fill="#010101" points="21.337 4.437 22.007 4.449 22.042 6.268 21.372 6.256" transform="translate(21.689408, 5.352496) rotate(-33.688478) translate(-21.689408, -5.352496)"/><polygon id="Rectangle" fill="#010101" points="8.245 10.451 8.915 10.463 8.99 14.435 8.32 14.423" transform="translate(8.617475, 12.442839) rotate(-33.683711) translate(-8.617475, -12.442839)"/><polygon id="Rectangle" fill="#010101" points="6.807 11.187 7.477 11.199 7.511 13.018 6.841 13.005" transform="translate(7.158952, 12.102297) rotate(-33.688478) translate(-7.158952, -12.102297)"/><polygon id="Rectangle" fill="#010101" points="8.033 12.957 8.703 12.969 8.738 14.788 8.068 14.775" transform="translate(8.385556, 13.872340) rotate(-33.688478) translate(-8.385556, -13.872340)"/><polygon id="Rectangle" fill="#010101" points="6.547 11.543 7.217 11.555 7.292 15.527 6.623 15.515" transform="translate(6.919700, 13.534968) rotate(-33.683711) translate(-6.919700, -13.534968)"/><polygon id="Rectangle" fill="#010101" points="6.628 5.183 10.6 5.258 10.612 5.928 6.64 5.852" transform="translate(8.620076, 5.555243) rotate(-56.316289) translate(-8.620076, -5.555243)"/><polygon id="Rectangle" fill="#010101" points="5.777 4.636 9.749 4.712 9.762 5.382 5.79 5.306" transform="translate(7.769535, 5.008996) rotate(-56.316289) translate(-7.769535, -5.008996)"/><polygon id="Rectangle" fill="#010101" points="4.928 4.097 8.9 4.173 8.913 4.842 4.941 4.767" transform="translate(6.920638, 4.469894) rotate(-56.316289) translate(-6.920638, -4.469894)"/><polygon id="Rectangle" fill="#010101" points="17.849 12.977 19.668 13.011 19.681 13.681 17.862 13.646" transform="translate(18.765042, 13.328823) rotate(-56.311522) translate(-18.765042, -13.328823)"/><polygon id="Rectangle" fill="#010101" points="19.075 11.206 20.893 11.241 20.906 11.91 19.088 11.876" transform="translate(19.990503, 11.558150) rotate(-56.316289) translate(-19.990503, -11.558150)"/><polygon id="Rectangle" fill="#010101" points="18.699 13.516 20.517 13.55 20.53 14.22 18.711 14.186" transform="translate(19.614063, 13.867900) rotate(-56.311522) translate(-19.614063, -13.867900)"/><polygon id="Rectangle" fill="#010101" points="19.927 11.752 21.745 11.786 21.758 12.456 19.939 12.422" transform="translate(20.842373, 12.103950) rotate(-56.311522) translate(-20.842373, -12.103950)"/><polygon id="Rectangle" fill="#010101" points="19.549 14.062 21.368 14.097 21.38 14.766 19.561 14.732" transform="translate(20.464535, 14.414290) rotate(-56.311522) translate(-20.464535, -14.414290)"/><polygon id="Rectangle" fill="#010101" points="20.773 12.295 22.591 12.33 22.604 13 20.785 12.965" transform="translate(21.688372, 12.647381) rotate(-56.311522) translate(-21.688372, -12.647381)"/><path id="Path" fill="#B51E3A" d="M10.6596875,6.8265 C10.6246875,6.864 10.6013542,6.9015 10.5663542,6.939 C10.5896875,6.9015 10.6246875,6.864 10.6596875,6.8265"/><path id="Path" fill="#B51E3A" d="M16.2640625,5.73975 C14.3882812,4.5375 11.8507813,5.02575 10.6039063,6.8265 C9.98046875,7.7295 10.2320313,8.94225 11.1726562,9.546 C12.1132812,10.1445 13.3765625,9.903 14.0054687,9 C14.6289062,8.097 15.8976563,7.8555 16.8382813,8.454 C17.7789062,9.0525 18.0304688,10.2705 17.4070312,11.1735 C18.6484375,9.37275 18.1398437,6.93675 16.2640625,5.73975"/><path id="Path" fill="#273775" d="M10.6039063,6.8265 C9.98046875,7.7295 10.2320312,8.94225 11.1726562,9.546 C12.1132812,10.1445 13.3765625,9.903 14.0054687,9 C14.6289062,8.097 15.8976563,7.8555 16.8382813,8.454 C17.7789062,9.0525 18.0304688,10.2705 17.4070312,11.1735 C16.1546875,12.97425 13.6226562,13.4625 11.746875,12.26025 C9.87109375,11.058 9.3515625,8.62725 10.6039063,6.8265"/></g></g></g><ellipse id="Oval" cx="10" cy="9.98" stroke="#4A4A4A" stroke-opacity=".3" stroke-width=".5" rx="9.167" ry="9.144"/></g></g></g></g></g></g></svg>