<svg xmlns="http://www.w3.org/2000/svg" xmlns:xlink="http://www.w3.org/1999/xlink" width="20" height="20" version="1.1" viewBox="0 0 20 20"><title>icon/copy</title><desc>Created with Sketch.</desc><g id="icon/copy" fill="none" fill-rule="evenodd" stroke="none" stroke-width="1"><g id="copy.inline"><rect id="Rectangle" width="20" height="20" x="0" y="0" fill="#D8D8D8" opacity="0"/><path id="Shape" fill="#464749" fill-rule="nonzero" d="M12.5789474,2 L4.36842105,2 C3.61578947,2 3,2.61363636 3,3.36363636 L3,12.9090909 L4.36842105,12.9090909 L4.36842105,3.36363636 L12.5789474,3.36363636 L12.5789474,2 Z M14.6315789,4.72727273 L7.10526316,4.72727273 C6.35263158,4.72727273 5.73684211,5.34090909 5.73684211,6.09090909 L5.73684211,15.6363636 C5.73684211,16.3863636 6.35263158,17 7.10526316,17 L14.6315789,17 C15.3842105,17 16,16.3863636 16,15.6363636 L16,6.09090909 C16,5.34090909 15.3842105,4.72727273 14.6315789,4.72727273 Z M14.6315789,15.6363636 L7.10526316,15.6363636 L7.10526316,6.09090909 L14.6315789,6.09090909 L14.6315789,15.6363636 Z"/></g></g></svg>