<svg xmlns="http://www.w3.org/2000/svg" xmlns:xlink="http://www.w3.org/1999/xlink" width="24" height="24" version="1.1" viewBox="0 0 24 24"><title>2E21D996-C9C2-4FB5-90F1-8B4FAD2F9C9B</title><defs><rect id="path-1" width="1198" height="617" x="0" y="0" rx="8"/><rect id="path-3" width="673" height="805" x="0" y="0" rx="8"/><filter id="filter-4" width="110.4%" height="108.7%" x="-5.2%" y="-2.7%" filterUnits="objectBoundingBox"><feMorphology in="SourceAlpha" operator="erode" radius=".5" result="shadowSpreadOuter1"/><feOffset dx="0" dy="13" in="shadowSpreadOuter1" result="shadowOffsetOuter1"/><feGaussianBlur in="shadowOffsetOuter1" result="shadowBlurOuter1" stdDeviation="10"/><feComposite in="shadowBlurOuter1" in2="SourceAlpha" operator="out" result="shadowBlurOuter1"/><feColorMatrix in="shadowBlurOuter1" type="matrix" values="0 0 0 0 0 0 0 0 0 0 0 0 0 0 0 0 0 0 0.15 0"/></filter></defs><g id="✅-REVAMP-1.1" fill="none" fill-rule="evenodd" stroke="none" stroke-width="1"><g id="2.3---navigation" transform="translate(-948.000000, -572.000000)"><rect id="bg" width="1366" height="885" x="0" y="93" fill="#F0F3F5"/><g id="element/stake-pools/advanced" transform="translate(128.000000, 585.000000)"><mask id="mask-2" fill="#fff"><use xlink:href="#path-1"/></mask><use id="Rectangle-Copy-28" fill="#FFF" xlink:href="#path-1"/></g><rect id="overlay" width="1366" height="973" x="0" y="0" fill="#0B183A" opacity=".8"/><g id="popup" transform="translate(347.000000, 100.000000)"><g id="bg"><use fill="#000" fill-opacity="1" filter="url(#filter-4)" xlink:href="#path-3"/><rect width="672" height="804" x=".5" y=".5" fill="#FFF" fill-rule="evenodd" stroke="#D9DDE0" stroke-linejoin="square" stroke-width="1" rx="8"/></g><g id="icon/to-star" transform="translate(601.000000, 472.000000)"><rect id="Rectangle" width="24" height="24" x="0" y="0"/><polygon id="Star" stroke="#6B7384" stroke-linejoin="round" stroke-width="1.5" points="12 17 6.122 20.09 7.245 13.545 2.489 8.91 9.061 7.955 12 2 14.939 7.955 21.511 8.91 16.755 13.545 17.878 20.09"/></g><g id="icon/stared" transform="translate(601.000000, 472.000000)"><rect id="Rectangle-Copy" width="24" height="24" x="0" y="0"/><polygon id="Star" fill="#6B7384" stroke="#6B7384" stroke-linejoin="round" stroke-width="1.5" points="12 17 6.122 20.09 7.245 13.545 2.489 8.91 9.061 7.955 12 2 14.939 7.955 21.511 8.91 16.755 13.545 17.878 20.09"/></g></g></g></g></svg>