<svg xmlns="http://www.w3.org/2000/svg" xmlns:xlink="http://www.w3.org/1999/xlink" x="0" y="0" version="1.1" viewBox="0 0 215.4 202.5" xml:space="preserve" style="enable-background:new 0 0 215.4 202.5"><style type="text/css">.st0{fill:#fff}</style><g id="tick"><g><g><path d="M198.5,135.5c-1.3-1.3-3.2-1.7-4.8-1C146.1,154.1,91.5,131.6,71.9,84c-10-24.2-9.4-51.4,1.7-75.1 c1-2.2,0.1-4.8-2.1-5.8C70.3,2.5,69,2.5,67.9,3C15.7,24.4-9.2,84,12.2,136.2s81.1,77.1,133.2,55.6c23.8-9.8,43-28.2,53.8-51.5 C200,138.7,199.7,136.8,198.5,135.5z" class="st0"/></g></g><g><path d="M180.2,117.8l-10.7,7.4C143.4,107.1,117.2,89,91,70.9c0-0.1,0-0.2,0-0.3v-4.8c0-1.6,0-3.1,0-4.7v-4.9 C120.8,76.7,150.5,97.2,180.2,117.8z M158.3,47.7c-4.7,3.2-9.5,6.4-14.3,9.7c-0.6,0.4-1.1,0.4-1.7,0c-5.9-4.1-11.8-8.1-17.6-12.2 c-6.2-4.3-12.3-8.6-18.5-12.9c-2.9-2-5.8-4.1-8.8-6.1H76.2c1.1,0.8,2.1,1.4,3,2.1c5.5,3.8,11.1,7.7,16.6,11.5 c5.5,3.8,11,7.6,16.4,11.4c5.1,3.6,10.3,7.2,15.4,10.8c4.9,3.4,9.8,6.8,14.7,10.2c0.5,0.4,0.9,0.4,1.4,0c4-2.7,7.9-5.4,11.9-8.1 c9.8-6.7,19.6-13.4,29.3-20.1c7.1-4.9,14.2-9.7,21.3-14.6c1.5-1,2.9-2,4.5-3.1h-21.3C179.2,33.4,168.7,40.5,158.3,47.7z M195.8,56.1c-13.1,9.1-26,18-39,27c0.2,0.2,0.3,0.4,0.4,0.5c3.3,2.3,6.6,4.7,9.9,7c0.1,0.1,0.2,0.1,0.4,0.1 c9.4-6.5,18.8-13,28.3-19.6c0-0.1,0.1-0.2,0.1-0.3V56.1z M195.9,92.8c-4.4,3.1-8.7,6-13,9c3.5,2.5,6.8,4.8,10.1,7.2l2.9-2V92.8z" class="st0"/></g></g></svg>