<svg xmlns="http://www.w3.org/2000/svg" xmlns:xlink="http://www.w3.org/1999/xlink" x="0" y="0" version="1.1" viewBox="0 0 737.1 217.3" xml:space="preserve" style="enable-background:new 0 0 737.1 217.3"><style type="text/css">.st0{fill:#fff}</style><g id="tick"><g><g><path d="M194.7,135.7c-1.3-1.3-3.2-1.7-4.8-1c-47.6,19.7-102.1-2.9-121.8-50.5c-10-24.2-9.4-51.4,1.7-75.1 c1-2.2,0.1-4.8-2.1-5.8c-1.1-0.5-2.4-0.6-3.6-0.1C11.9,24.6-13,84.2,8.5,136.4s81.1,77.1,133.2,55.6c23.8-9.8,43-28.2,53.8-51.5 C196.2,138.9,195.9,137,194.7,135.7z" class="st0"/></g></g><g><path d="M176.5,118l-10.7,7.4c-26.2-18.1-52.3-36.2-78.6-54.3c0-0.1,0-0.2,0-0.3v-4.8c0-1.6,0-3.1,0-4.7v-4.9 C117,76.9,146.7,97.4,176.5,118z M154.5,47.9c-4.7,3.2-9.5,6.4-14.3,9.7c-0.6,0.4-1.1,0.4-1.7,0c-5.9-4.1-11.8-8.1-17.6-12.2 c-6.2-4.3-12.3-8.6-18.5-12.9c-2.9-2-5.8-4.1-8.8-6.1H72.5c1.1,0.8,2.1,1.4,3,2.1C81,32.4,86.5,36.2,92,40 c5.5,3.8,11,7.6,16.4,11.4c5.1,3.6,10.3,7.2,15.4,10.8c4.9,3.4,9.8,6.8,14.7,10.2c0.5,0.4,0.9,0.4,1.4,0c4-2.7,7.9-5.4,11.9-8.1 c9.8-6.7,19.6-13.4,29.3-20.1c7.1-4.9,14.2-9.7,21.3-14.6c1.5-1,2.9-2,4.5-3.1h-21.3C175.4,33.6,165,40.8,154.5,47.9z M192.1,56.3 c-13.1,9.1-26,18-39,27c0.2,0.2,0.3,0.4,0.4,0.5c3.3,2.3,6.6,4.7,9.9,7c0.1,0.1,0.2,0.1,0.4,0.1c9.4-6.5,18.8-13,28.3-19.6 c0-0.1,0.1-0.2,0.1-0.3V56.3z M192.1,93c-4.4,3.1-8.7,6-13,9c3.5,2.5,6.8,4.8,10.1,7.2l2.9-2V93z" class="st0"/></g><g><g><path d="M327.7,181.5c0-3.1-0.1-5.5-0.2-8h4.7l0.3,4.9h0.1c1.5-2.7,4.9-5.5,9.7-5.5c4.1,0,10.4,2.4,10.4,12.5V203 h-5.3V186c0-4.7-1.8-8.7-6.8-8.7c-3.5,0-6.2,2.5-7.2,5.5c-0.2,0.7-0.4,1.6-0.4,2.5V203h-5.3V181.5z" class="st0"/><path d="M368,165.3c0,1.8-1.3,3.3-3.4,3.3c-1.9,0-3.2-1.5-3.2-3.3c0-1.8,1.3-3.3,3.3-3.3 C366.6,162,368,163.4,368,165.3z M362,203v-29.4h5.3V203H362z" class="st0"/><path d="M402,198.7c0,6.8-1.4,10.9-4.2,13.5c-2.9,2.6-7,3.5-10.7,3.5c-3.5,0-7.4-0.8-9.8-2.4l1.3-4.1 c1.9,1.3,5,2.4,8.6,2.4c5.5,0,9.5-2.9,9.5-10.3v-3.2h-0.1c-1.6,2.7-4.8,4.9-9.4,4.9c-7.3,0-12.5-6.2-12.5-14.3 c0-10,6.5-15.5,13.3-15.5c5.1,0,7.8,2.6,9.2,5h0.1l0.2-4.4h4.7c-0.2,2.1-0.2,4.5-0.2,8V198.7z M396.6,185.2 c0-0.9-0.1-1.7-0.3-2.4c-1-3.2-3.5-5.7-7.5-5.7c-5.1,0-8.7,4.3-8.7,11.1c0,5.8,3,10.6,8.7,10.6c3.3,0,6.3-2.1,7.4-5.5 c0.3-0.9,0.4-1.9,0.4-2.9V185.2z" class="st0"/><path d="M411.4,159.8h5.3v18.4h0.1c0.8-1.5,2.2-2.9,3.8-3.8c1.6-0.9,3.5-1.5,5.5-1.5c3.9,0,10.3,2.4,10.3,12.5V203 h-5.3v-16.9c0-4.7-1.8-8.7-6.8-8.7c-3.5,0-6.1,2.4-7.2,5.3c-0.3,0.8-0.4,1.6-0.4,2.6V203h-5.3V159.8z" class="st0"/><path d="M451.9,166.5v7h7.7v4.1h-7.7v15.9c0,3.6,1,5.7,4,5.7c1.5,0,2.3-0.1,3.1-0.4l0.2,4.1c-1,0.4-2.7,0.7-4.7,0.7 c-2.5,0-4.5-0.9-5.8-2.2c-1.5-1.6-2.1-4.3-2.1-7.7v-16h-4.6v-4.1h4.6v-5.5L451.9,166.5z" class="st0"/><path d="M466.2,159.8h5.3V203h-5.3V159.8z" class="st0"/><path d="M483.1,173.6l6.4,17.4c0.7,1.9,1.5,4.3,1.9,6h0.1c0.5-1.8,1.2-4,1.9-6.1l5.8-17.2h5.6l-8,21 c-3.8,10.1-6.4,15.2-10.1,18.4c-2.7,2.2-5.2,3.2-6.6,3.4l-1.3-4.4c1.3-0.4,3.1-1.3,4.7-2.6c1.5-1.2,3.2-3.2,4.5-6 c0.2-0.5,0.4-1,0.4-1.3s-0.1-0.7-0.4-1.4l-10.8-27.1H483.1z" class="st0"/><path d="M525.9,173.6l3.9,14.9c0.8,3.3,1.6,6.3,2.1,9.4h0.2c0.7-3,1.6-6.1,2.6-9.3l4.8-15h4.5l4.6,14.7 c1.1,3.5,1.9,6.6,2.6,9.6h0.2c0.5-3,1.3-6.1,2.2-9.5l4.2-14.8h5.3l-9.5,29.4h-4.9l-4.5-14c-1-3.3-1.9-6.2-2.6-9.7h-0.1 c-0.7,3.5-1.6,6.6-2.7,9.7l-4.7,14h-4.9l-8.9-29.4H525.9z" class="st0"/><path d="M589.5,195.9c0,2.6,0.1,5,0.4,7h-4.8l-0.4-3.7h-0.2c-1.6,2.3-4.8,4.4-9,4.4c-6,0-9-4.2-9-8.4 c0-7.1,6.3-11,17.7-10.9v-0.6c0-2.4-0.7-6.8-6.7-6.7c-2.8,0-5.6,0.8-7.7,2.2l-1.2-3.6c2.4-1.5,6-2.6,9.7-2.6 c9,0,11.2,6.1,11.2,12V195.9z M584.4,188c-5.8-0.1-12.5,0.9-12.5,6.6c0,3.5,2.3,5.1,5,5.1c3.9,0,6.4-2.4,7.2-4.9 c0.2-0.6,0.2-1.2,0.2-1.7V188z" class="st0"/><path d="M598.8,159.8h5.3V203h-5.3V159.8z" class="st0"/><path d="M613.7,159.8h5.3V203h-5.3V159.8z" class="st0"/><path d="M631.6,189.2c0.1,7.2,4.7,10.2,10.1,10.2c3.8,0,6.2-0.7,8.1-1.5l1,3.8c-1.9,0.9-5.2,1.9-9.8,1.9 c-9,0-14.5-6-14.5-14.9s5.2-15.8,13.8-15.8c9.7,0,12.1,8.4,12.1,13.8c0,1.1-0.1,1.9-0.2,2.5H631.6z M647.3,185.4 c0.1-3.3-1.4-8.6-7.4-8.6c-5.5,0-7.8,4.9-8.2,8.6H647.3z" class="st0"/><path d="M666.1,166.5v7h7.7v4.1h-7.7v15.9c0,3.6,1,5.7,4,5.7c1.5,0,2.3-0.1,3.1-0.4l0.2,4.1c-1,0.4-2.7,0.7-4.7,0.7 c-2.5,0-4.5-0.9-5.8-2.2c-1.5-1.6-2.1-4.3-2.1-7.7v-16h-4.6v-4.1h4.6v-5.5L666.1,166.5z" class="st0"/></g><rect width="39.1" height="5.1" x="273.4" y="181.4" class="st0"/><rect width="49.9" height="5.1" x="687.2" y="181.4" class="st0"/><g><polygon points="350.7 5.8 315.7 62.3 281.4 6.4 281 5.8 271.3 5.8 311.7 71.3 311.7 125.2 319.9 125.2 319.9 71.3 360.5 5.8" class="st0"/><path d="M460.4,21.9c-10.8-11.2-24.4-17-40.5-17c-16.7,0-30.5,5.9-41.2,17.4c-10.6,11.5-16,25.9-16,42.9 c0,17.1,5.4,31.6,16,43.1c10.7,11.6,24.5,17.4,41.2,17.4c16,0,29.6-5.7,40.5-17c10.8-11.3,16.3-25.9,16.3-43.6 C476.7,47.7,471.2,33.1,460.4,21.9z M468.3,65.4c0,15.3-4.7,28-14.1,37.7c-9.2,9.7-20.7,14.6-34.3,14.6c-14.1,0-26-5.1-35.1-15 c-9.1-10.1-13.7-22.6-13.7-37.2c0-14.6,4.6-27.1,13.7-37c9.1-9.9,20.9-14.9,35.2-14.9c13.9,0,25.1,4.7,34.3,14.5 C463.6,37.5,468.3,50.1,468.3,65.4z" class="st0"/><path d="M542.1,75.9c9-0.8,16.6-4.1,22.4-9.6c6.1-5.9,9.3-14.5,9.3-25.6c0-10.5-3.1-19-9.2-25.4 c-6.1-6.3-15.4-9.5-27.7-9.5h-38.9v119.4h8.3V76.1h26.1l34,49.1h10.1L542.1,75.9z M565.3,40.5c0,18.4-10.1,27.4-30.9,27.4h-28.3 V14.1h31.1c8.8,0,15.8,2.2,20.8,6.6C562.8,25,565.3,31.7,565.3,40.5z" class="st0"/><path d="M685.7,21.9c-10.8-11.2-24.4-17-40.5-17c-16.7,0-30.5,5.9-41.2,17.4c-10.6,11.5-16,25.9-16,42.9 c0,17.1,5.4,31.6,16,43.1c10.7,11.6,24.5,17.4,41.2,17.4c16,0,29.6-5.7,40.5-17C696.5,97.7,702,83,702,65.3 C702,47.7,696.5,33.1,685.7,21.9z M693.7,65.4c0,15.3-4.7,28-14.1,37.7c-9.2,9.7-20.7,14.6-34.3,14.6c-14.1,0-26-5.1-35.1-15 C601,92.5,596.4,80,596.4,65.4c0-14.7,4.6-27.2,13.7-37c9.1-9.9,20.9-14.9,35.2-14.9c13.9,0,25.1,4.7,34.3,14.5 C688.9,37.5,693.7,50.1,693.7,65.4z" class="st0"/><g><path d="M732.4,125.2h-8.2V5.8h8.2V125.2z" class="st0"/></g></g></g></g></svg>