<svg xmlns="http://www.w3.org/2000/svg" xmlns:xlink="http://www.w3.org/1999/xlink" width="18" height="18"><defs><circle id="a" cx="8" cy="8" r="8"/></defs><g fill="none" fill-rule="evenodd" transform="translate(1 1)"><mask id="b" fill="#fff"><use xlink:href="#a"/></mask><circle cx="8" cy="8" r="8.25" stroke="#4A4A4A" stroke-opacity=".303" stroke-width=".5"/><g mask="url(#b)"><rect id="canvas_background" width="20" height="20" x="-1" y="-1" fill="none"/><g id="flag" stroke="null" stroke-width="1pt"><rect id="rect552" width="18.159" height="18.159" fill="#229e45" fill-rule="evenodd" stroke="null"/><g id="g3551" stroke="null" transform="matrix(0.026531423097082407,0,0,0.026531423097082407,2.3257821578673847,2.2874778280745223)"><path id="path554" fill="#f8e509" fill-rule="evenodd" stroke="null" d="m228.740244,434.508728l307.29,-199.44l-309.15,-199.98l-308.3,200.46l310.16,198.96z"/><path id="path557" fill="#2b49a3" fill-rule="evenodd" stroke="null" d="m362.635314,234.804338c0,71.68257 -58.20428,129.79308 -130.00162,129.79308c-71.79903,0 -130.00162,-58.1105 -130.00162,-129.79308s58.20428,-129.79308 130.00162,-129.79308c71.79903,0 130.00162,58.1105 130.00162,129.79308z"/><polygon id="polygon559" fill="#ffffef" fill-rule="evenodd" stroke="null" points="189.898 312.542 185.882 310.224 181.71 312.288 182.644 307.652 179.422 304.255 184.03 303.715 186.194 299.557 188.124 303.858 192.669 304.683 189.26 307.875"/><polygon id="polygon560" fill="#ffffef" fill-rule="evenodd" stroke="null" points="277.018 334.602 273.001 332.284 268.829 334.348 269.763 329.712 266.541 326.315 271.149 325.775 273.313 321.617 275.243 325.918 279.789 326.743 276.379 329.935"/><polygon id="polygon561" fill="#ffffef" fill-rule="evenodd" stroke="null" points="239.467 299.363 235.997 297.36 232.393 299.143 233.2 295.138 230.416 292.203 234.397 291.737 236.266 288.144 237.934 291.86 241.861 292.573 238.916 295.33"/><polygon id="polygon562" fill="#ffffef" fill-rule="evenodd" stroke="null" points="327.454 286.692 324.047 284.725 320.508 286.476 321.301 282.544 318.567 279.662 322.476 279.204 324.311 275.677 325.948 279.325 329.804 280.025 326.912 282.732"/><polygon id="polygon563" fill="#ffffef" fill-rule="evenodd" stroke="null" points="237.877 260.312 233.86 257.994 229.688 260.058 230.622 255.422 227.4 252.025 232.008 251.485 234.172 247.327 236.102 251.628 240.648 252.453 237.238 255.645"/><polygon id="polygon564" fill="#ffffef" fill-rule="evenodd" stroke="null" points="130.608 220.04 126.592 217.722 122.42 219.786 123.354 215.15 120.132 211.752 124.74 211.213 126.904 207.054 128.834 211.356 133.379 212.181 129.97 215.372"/><polygon id="polygon565" fill="#ffffef" fill-rule="evenodd" stroke="null" points="143.508 273.612 139.492 271.294 135.32 273.358 136.254 268.722 133.032 265.325 137.64 264.785 139.804 260.627 141.734 264.928 146.279 265.753 142.87 268.945"/><polygon id="polygon566" fill="#ffffef" fill-rule="evenodd" stroke="null" points="277.367 200.319 273.819 198.271 270.134 200.095 270.959 195.999 268.113 192.998 272.183 192.521 274.094 188.848 275.799 192.647 279.815 193.377 276.803 196.196"/><polygon id="polygon567" fill="#ffffef" fill-rule="evenodd" stroke="null" points="270.01 235.172 267.216 233.559 264.314 234.995 264.963 231.77 262.722 229.406 265.927 229.03 267.433 226.138 268.776 229.13 271.938 229.704 269.566 231.925"/><polygon id="polygon568" fill="#ffffef" fill-rule="evenodd" stroke="null" points="124.629 283.32 121.947 281.772 119.162 283.15 119.786 280.055 117.634 277.786 120.711 277.426 122.155 274.65 123.444 277.521 126.479 278.073 124.203 280.203"/><polygon id="polygon569" fill="#ffffef" fill-rule="evenodd" stroke="null" points="328.198 295.66 326.013 294.502 323.743 295.533 324.251 293.218 322.498 291.521 325.005 291.251 326.182 289.174 327.232 291.322 329.705 291.735 327.851 293.329"/><polygon id="polygon570" fill="#ffffef" fill-rule="evenodd" stroke="null" points="124.629 283.32 121.947 281.772 119.162 283.15 119.786 280.055 117.634 277.786 120.711 277.426 122.155 274.65 123.444 277.521 126.479 278.073 124.203 280.203"/><polygon id="polygon571" fill="#ffffef" fill-rule="evenodd" stroke="null" points="124.629 283.32 121.947 281.772 119.162 283.15 119.786 280.055 117.634 277.786 120.711 277.426 122.155 274.65 123.444 277.521 126.479 278.073 124.203 280.203"/><polygon id="polygon572" fill="#ffffef" fill-rule="evenodd" stroke="null" points="167.316 283.31 164.634 281.762 161.849 283.14 162.473 280.045 160.321 277.776 163.398 277.416 164.842 274.64 166.131 277.511 169.166 278.063 166.89 280.193"/><polygon id="polygon573" fill="#ffffef" fill-rule="evenodd" stroke="null" points="162.012 297.51 159.33 295.962 156.545 297.34 157.169 294.245 155.017 291.976 158.094 291.616 159.538 288.84 160.827 291.711 163.862 292.263 161.586 294.393"/><polygon id="polygon574" fill="#ffffef" fill-rule="evenodd" stroke="null" points="250.65 271.66 247.969 270.112 245.183 271.49 245.807 268.395 243.655 266.126 246.732 265.766 248.176 262.99 249.465 265.861 252.5 266.413 250.224 268.543"/><polygon id="polygon575" fill="#ffffef" fill-rule="evenodd" stroke="null" points="224.64 271.65 221.958 270.102 219.173 271.48 219.797 268.385 217.645 266.116 220.722 265.756 222.166 262.98 223.455 265.851 226.49 266.403 224.214 268.533"/><polygon id="polygon576" fill="#ffffef" fill-rule="evenodd" stroke="null" points="154.09 262.582 152.41 261.612 150.664 262.476 151.055 260.536 149.707 259.115 151.635 258.889 152.54 257.149 153.347 258.949 155.249 259.294 153.823 260.629"/><polygon id="polygon577" fill="#ffffef" fill-rule="evenodd" stroke="null" points="324.892 306.89 322.211 305.342 319.425 306.72 320.049 303.625 317.898 301.356 320.974 300.996 322.419 298.22 323.707 301.091 326.742 301.643 324.466 303.773"/><polygon id="polygon578" fill="#ffffef" fill-rule="evenodd" stroke="null" points="303.233 309.727 301.012 308.442 298.704 309.587 299.221 307.016 297.439 305.132 299.987 304.833 301.184 302.528 302.251 304.912 304.765 305.37 302.88 307.139"/><polygon id="polygon579" fill="#ffffef" fill-rule="evenodd" stroke="null" points="313.451 309.48 311.382 308.285 309.233 309.349 309.714 306.959 308.054 305.207 310.428 304.929 311.542 302.785 312.537 305.003 314.878 305.428 313.122 307.074"/><polygon id="polygon580" fill="#ffffef" fill-rule="evenodd" stroke="null" points="342.792 283.876 340.799 282.726 338.73 283.75 339.193 281.45 337.594 279.765 339.88 279.497 340.954 277.434 341.911 279.568 344.167 279.977 342.475 281.56"/><polygon id="polygon581" fill="#ffffef" fill-rule="evenodd" stroke="null" points="302.976 324.177 300.374 322.757 297.671 324.022 298.276 321.181 296.188 319.099 299.173 318.768 300.575 316.22 301.826 318.856 304.771 319.362 302.562 321.317"/><polygon id="polygon582" fill="#ffffef" fill-rule="evenodd" stroke="null" points="303.123 335.837 300.749 334.417 298.284 335.682 298.836 332.841 296.931 330.759 299.654 330.428 300.933 327.88 302.074 330.516 304.76 331.022 302.745 332.977"/><polygon id="polygon583" fill="#ffffef" fill-rule="evenodd" stroke="null" points="283.452 309.476 281.459 308.326 279.39 309.35 279.853 307.05 278.254 305.365 280.54 305.097 281.614 303.034 282.571 305.168 284.827 305.577 283.135 307.16"/><polygon id="polygon584" fill="#ffffef" fill-rule="evenodd" stroke="null" points="265.012 309.476 263.019 308.326 260.95 309.35 261.413 307.05 259.814 305.365 262.1 305.097 263.174 303.034 264.131 305.168 266.387 305.577 264.695 307.16"/><polygon id="polygon585" fill="#ffffef" fill-rule="evenodd" stroke="null" points="233.701 282.096 231.708 280.946 229.638 281.97 230.102 279.67 228.503 277.985 230.789 277.717 231.863 275.654 232.82 277.788 235.075 278.197 233.384 279.78"/><polygon id="polygon586" fill="#ffffef" fill-rule="evenodd" stroke="null" points="237.19 337.901 235.502 336.927 233.749 337.794 234.141 335.846 232.787 334.418 234.724 334.191 235.633 332.444 236.444 334.251 238.354 334.598 236.922 335.939"/><polygon id="polygon587" fill="#ffffef" fill-rule="evenodd" stroke="null" points="189.898 247.639 185.882 245.321 181.71 247.385 182.644 242.749 179.422 239.351 184.03 238.812 186.194 234.653 188.124 238.955 192.669 239.78 189.26 242.971"/><path id="path726" fill="#fff" fill-rule="evenodd" stroke="null" stroke-opacity=".503" d="m354.070244,281.498728c1.9812,-5.1813 4.537,-12.995 5.8942,-20.167c-69.048,-60.656 -146.02,-91.728 -243.28,-85.335c-3.4867,6.6859 -6.2778,13.683 -8.6308,21.256c115.24,-10.994 199.71,40.026 246.02,84.246l-0.0034,0z"/><path id="path790" fill="#309e3a" stroke="null" stroke-opacity=".502" d="m323.030244,247.398728l2.4671,1.3471c-0.38704,0.87468 -0.49104,1.6398 -0.31543,2.292c0.18244,0.659 0.63597,1.2324 1.3589,1.722c0.76726,0.52378 1.4527,0.75315 2.0562,0.69153c0.6104,-0.0616 1.0656,-0.31153 1.3606,-0.74801c0.18584,-0.27901 0.26257,-0.57342 0.22847,-0.87981c-0.0273,-0.3064 -0.19608,-0.6727 -0.50468,-1.0955c-0.21313,-0.28585 -0.73316,-0.89008 -1.5584,-1.811c-1.0605,-1.1828 -1.6931,-2.1807 -1.8977,-2.9938c-0.28303,-1.1434 -0.11083,-2.1824 0.52003,-3.1187c0.40749,-0.60252 0.9548,-1.051 1.6436,-1.3437c0.69905,-0.29441 1.4612,-0.36117 2.283,-0.20198c0.82692,0.1609 1.6965,0.54945 2.6001,1.1657c1.48,1.0048 2.3734,2.0866 2.6786,3.2437c0.31201,1.1605 0.12105,2.2971 -0.57459,3.4097l-2.4501,-1.5114c0.30691,-0.67783 0.38193,-1.2632 0.22166,-1.7562c-0.15005,-0.49468 -0.56095,-0.96882 -1.2327,-1.4241c-0.69053,-0.469 -1.3282,-0.69495 -1.9113,-0.67612c-0.3768,0.012 -0.66665,0.17117 -0.87296,0.47757c-0.18926,0.28071 -0.23188,0.6008 -0.13129,0.96026c0.13129,0.45702 0.6803,1.2153 1.6556,2.2766c0.97185,1.0595 1.6351,1.9256 1.988,2.5966c0.36146,0.66928 0.52515,1.3659 0.49105,2.0883c-0.0239,0.72062 -0.28986,1.4549 -0.79283,2.203c-0.45694,0.67954 -1.0724,1.1845 -1.8465,1.5217c-0.77408,0.33721 -1.601,0.41937 -2.4842,0.24306c-0.87808,-0.17972 -1.8295,-0.61792 -2.8525,-1.3146c-1.4902,-1.0099 -2.404,-2.1328 -2.7382,-3.3635c-0.32906,-1.2358 -0.12787,-2.571 0.6104,-4.0002l0.00007,-0.0002z"/><path id="path791" fill="#309e3a" stroke="null" stroke-opacity=".502" d="m311.330244,239.718728l2.52,1.2444c-0.35124,0.88837 -0.42455,1.6586 -0.22336,2.3022c0.21142,0.65044 0.68371,1.2067 1.4271,1.6672c0.78942,0.49126 1.4816,0.69324 2.0818,0.60765c0.6104,-0.0873 1.0554,-0.35261 1.3299,-0.80107c0.17732,-0.28585 0.2404,-0.58369 0.19437,-0.88837c-0.0392,-0.30639 -0.22336,-0.66585 -0.55072,-1.0766c-0.22335,-0.2773 -0.76384,-0.85756 -1.6283,-1.7459c-1.1066,-1.14 -1.7783,-2.1122 -2.0153,-2.915c-0.32906,-1.1314 -0.19778,-2.1756 0.39215,-3.1375c0.38534,-0.61792 0.91389,-1.0869 1.5891,-1.407c0.68882,-0.3218 1.4476,-0.42107 2.2745,-0.29612c0.83375,0.13009 1.7169,0.4827 2.6445,1.0612c1.5209,0.94314 2.4552,1.989 2.8064,3.1324c0.35805,1.1485 0.21312,2.2902 -0.43478,3.4302l-2.5115,-1.4122c0.27963,-0.6881 0.33248,-1.2752 0.15175,-1.7613c-0.1705,-0.48954 -0.60016,-0.94657 -1.2873,-1.3745c-0.71099,-0.44162 -1.3572,-0.64017 -1.9369,-0.59738c-0.3768,0.0257 -0.65984,0.19856 -0.85421,0.51351c-0.17561,0.28756 -0.20801,0.60594 -0.0921,0.96197c0.14834,0.45189 0.72804,1.1879 1.7442,2.2098c1.0128,1.0185 1.7118,1.8572 2.0903,2.5128c0.38875,0.65387 0.57971,1.3437 0.57459,2.066c0.007,0.72234 -0.23188,1.4652 -0.70246,2.2355c-0.42966,0.69324 -1.0281,1.2256 -1.7851,1.5953c-0.76044,0.36802 -1.5857,0.4827 -2.474,0.34234c-0.88149,-0.14378 -1.8499,-0.54603 -2.9019,-1.1982c-1.5277,-0.9517 -2.4859,-2.0352 -2.8695,-3.2522c-0.38192,-1.2222 -0.23358,-2.5624 0.44672,-4.0191l0.00005,-0.00003z"/><path id="path792" fill="#309e3a" stroke="null" stroke-opacity=".502" d="m296.850244,235.838728l7.4168,-12.196l9.0076,5.5202l-1.2549,2.0643l-6.5523,-4.0173l-1.647,2.7028l6.0988,3.7383l-1.2498,2.054l-6.0988,-3.7366l-2.017,3.319l6.7859,4.1594l-1.2515,2.0557l-9.2377,-5.664l-0.0001,0.0002z"/><path id="path795" fill="#309e3a" stroke="null" stroke-opacity=".502" d="m275.760244,218.518728l1.0997,-2.1413l5.5055,2.85l-2.595,5.058c-0.80476,0.24306 -1.8158,0.30126 -3.04,0.17289c-1.2123,-0.1318 -2.3393,-0.46558 -3.381,-1.0048c-1.3231,-0.68468 -2.3342,-1.5559 -3.0332,-2.6206c-0.69565,-1.0698 -1.0281,-2.2474 -0.99232,-3.5381c0.0392,-1.2975 0.36999,-2.5538 0.99573,-3.7726c0.67688,-1.3231 1.5601,-2.3536 2.641,-3.0982c1.0759,-0.74117 2.2915,-1.1109 3.6368,-1.1109c1.0281,-0.003 2.1449,0.31153 3.3538,0.93287c1.572,0.81477 2.6274,1.7802 3.1645,2.8996c0.54901,1.1177 0.64961,2.3245 0.30349,3.6236l-2.7809,-0.83702c0.14151,-0.71548 0.058,-1.3813 -0.25405,-1.9941c-0.30179,-0.61792 -0.82181,-1.116 -1.5567,-1.4977c-1.1185,-0.57855 -2.1875,-0.68296 -3.2156,-0.31153c-1.0196,0.36973 -1.8874,1.253 -2.6036,2.6514c-0.77578,1.508 -1.0247,2.8123 -0.74509,3.9146c0.28304,1.0938 0.96333,1.9222 2.0477,2.4837c0.53366,0.27558 1.1219,0.44847 1.763,0.51693c0.65132,0.0668 1.2447,0.0496 1.7868,-0.0514l0.82693,-1.6124l-2.9275,-1.5131l0.00001,0.00016z"/><path id="path804" fill="#309e3a" stroke="null" stroke-opacity=".502" d="m183.780244,195.708728l2.0733,-14.135l4.2523,0.6299l1.1441,10.017l3.9352,-9.2688l4.2676,0.6299l-2.0716,14.137l-2.6411,-0.39026l1.6334,-11.128l-4.4279,10.715l-2.7365,-0.40567l-1.156,-11.539l-1.6317,11.126l-2.6411,-0.38856l0,0.00049z"/><path id="path805" fill="#309e3a" stroke="null" stroke-opacity=".502" d="m169.400244,194.038728l1.3299,-14.229l10.506,0.99278l-0.22165,2.4066l-7.647,-0.72062l-0.29667,3.1546l7.1133,0.66927l-0.22336,2.3981l-7.115,-0.67099l-0.35976,3.8718l7.9129,0.74459l-0.22165,2.3998l-10.777,-1.0168l-0.00001,-0.00013z"/><g id="g812" stroke="null" stroke-opacity=".502" transform="matrix(1.397,-0.89423,0.89074,1.4025,-199.05,128.1)"><path id="path810" fill="#309e3a" stroke="null" d="m144.858547,133.030961c0.49,-0.725 1.01,-1.26 1.56,-1.605c0.406,-0.253 0.847,-0.429 1.319,-0.529c0.476,-0.098 0.928,-0.103 1.356,-0.016c0.57,0.112 1.145,0.364 1.724,0.755c1.048,0.71 1.666,1.602 1.853,2.676c0.192,1.078 -0.105,2.196 -0.888,3.354c-0.777,1.148 -1.698,1.837 -2.763,2.064c-1.062,0.225 -2.116,-0.016 -3.16,-0.723c-1.059,-0.716 -1.681,-1.607 -1.87,-2.673c-0.187,-1.07 0.103,-2.171 0.869,-3.303z"/><path id="path811" fill="#f7ffff" stroke="null" d="m146.378547,133.980961c-0.545,0.805 -0.773,1.543 -0.683,2.212c0.091,0.666 0.424,1.193 0.997,1.58c0.572,0.387 1.181,0.499 1.824,0.336c0.649,-0.165 1.252,-0.66 1.811,-1.485c0.551,-0.815 0.783,-1.545 0.696,-2.189c-0.085,-0.642 -0.423,-1.163 -1.015,-1.564c-0.592,-0.4 -1.207,-0.519 -1.846,-0.357c-0.636,0.159 -1.231,0.648 -1.784,1.467z"/></g><g id="g815" stroke="null" stroke-opacity=".502" transform="matrix(1.383,-0.91592,0.91234,1.3884,-199.32,133.77)"><path id="path808" fill="#309e3a" stroke="null" d="m150.843351,141.818852l4.814,-7.115l3.023,2.046c0.761,0.515 1.269,0.952 1.524,1.314c0.261,0.36 0.384,0.774 0.37,1.241s-0.163,0.91 -0.448,1.331c-0.361,0.534 -0.817,0.869 -1.367,1.006c-0.548,0.134 -1.165,0.035 -1.851,-0.297c0.188,0.391 0.31,0.764 0.363,1.116c0.058,0.354 0.07,0.924 0.039,1.71l-0.07,1.975l-1.718,-1.162l0.009,-2.251c0.006,-0.802 -0.012,-1.321 -0.051,-1.555c-0.038,-0.238 -0.115,-0.434 -0.232,-0.589c-0.115,-0.157 -0.337,-0.348 -0.668,-0.571l-0.29,-0.197l-2.01,2.97l-1.437,-0.972z"/><path id="path809" fill="#fff" stroke="null" d="m155.063351,138.688852l1.063,0.719c0.689,0.467 1.139,0.729 1.35,0.787c0.211,0.057 0.413,0.048 0.606,-0.029s0.362,-0.222 0.507,-0.435c0.162,-0.24 0.228,-0.476 0.196,-0.709c-0.025,-0.234 -0.141,-0.45 -0.348,-0.646c-0.106,-0.095 -0.45,-0.34 -1.032,-0.734l-1.121,-0.758l-1.221,1.805z"/></g><g id="g818" stroke="null" stroke-opacity=".502" transform="matrix(1.4175,-0.86112,0.85776,1.4231,-194.72,119.26)"><path id="path806" fill="#309e3a" stroke="null" d="m161.988521,139.949947l2.626,1.776c0.592,0.401 1.012,0.751 1.261,1.052c0.334,0.405 0.544,0.866 0.629,1.381c0.086,0.515 0.052,1.053 -0.101,1.615c-0.152,0.558 -0.452,1.17 -0.903,1.836c-0.396,0.586 -0.811,1.041 -1.243,1.367c-0.529,0.397 -1.065,0.644 -1.613,0.741c-0.412,0.075 -0.877,0.036 -1.393,-0.115c-0.385,-0.114 -0.843,-0.351 -1.374,-0.71l-2.702,-1.828l4.813,-7.115z"/><path id="path807" fill="#fff" stroke="null" d="m162.618521,142.119947l-3.188,4.713l1.073,0.725c0.4,0.272 0.706,0.445 0.914,0.52c0.272,0.099 0.532,0.131 0.778,0.095c0.25,-0.034 0.53,-0.177 0.841,-0.429c0.314,-0.254 0.657,-0.656 1.029,-1.206s0.609,-1.006 0.712,-1.366c0.102,-0.36 0.121,-0.681 0.058,-0.965c-0.063,-0.283 -0.209,-0.544 -0.438,-0.784c-0.17,-0.181 -0.548,-0.47 -1.134,-0.866l-0.645,-0.437z"/></g><g id="g824" stroke="null" stroke-opacity=".502" transform="matrix(1.5511,-0.58458,0.58229,1.5572,-164.55,46.058)"><path id="path800" fill="#309e3a" stroke="null" d="m186.593951,171.760757l4.813,-7.115l2.306,1.56c0.873,0.591 1.419,1.012 1.636,1.263c0.335,0.382 0.519,0.846 0.551,1.391c0.034,0.542 -0.141,1.096 -0.524,1.662c-0.295,0.437 -0.622,0.751 -0.983,0.941c-0.359,0.191 -0.72,0.288 -1.082,0.294c-0.357,0.004 -0.68,-0.052 -0.97,-0.168c-0.388,-0.164 -0.908,-0.466 -1.558,-0.906l-0.936,-0.634l-1.816,2.684l-1.437,-0.972z"/><path id="path801" fill="#fff" stroke="null" d="m192.033951,166.820757l-1.366,2.019l0.786,0.532c0.567,0.383 0.97,0.602 1.211,0.656c0.242,0.055 0.469,0.039 0.683,-0.047c0.217,-0.084 0.397,-0.231 0.539,-0.442c0.175,-0.259 0.244,-0.523 0.206,-0.794c-0.039,-0.272 -0.16,-0.507 -0.364,-0.706c-0.15,-0.149 -0.483,-0.398 -1.001,-0.748l-0.694,-0.47z"/></g><g id="g827" stroke="null" stroke-opacity=".502" transform="matrix(1.6028,-0.42116,0.41952,1.6091,-143.19,2.8883)"><path id="path798" fill="#309e3a" stroke="null" d="m191.360477,177.808633l4.813,-7.114l3.024,2.046c0.761,0.514 1.269,0.952 1.524,1.313c0.261,0.361 0.384,0.774 0.37,1.241s-0.163,0.911 -0.448,1.331c-0.361,0.534 -0.817,0.869 -1.367,1.006c-0.548,0.134 -1.165,0.035 -1.851,-0.296c0.188,0.391 0.31,0.763 0.363,1.115c0.058,0.355 0.07,0.925 0.039,1.71l-0.07,1.976l-1.718,-1.162l0.009,-2.251c0.005,-0.803 -0.012,-1.321 -0.051,-1.556c-0.038,-0.237 -0.115,-0.433 -0.232,-0.588c-0.115,-0.158 -0.337,-0.348 -0.668,-0.572l-0.29,-0.197l-2.01,2.971l-1.437,-0.973z"/><path id="path799" fill="#fff" stroke="null" d="m195.570477,174.678633l1.063,0.719c0.689,0.466 1.138,0.728 1.349,0.785c0.211,0.058 0.413,0.049 0.607,-0.028c0.193,-0.076 0.362,-0.222 0.506,-0.435c0.162,-0.24 0.228,-0.476 0.197,-0.709c-0.025,-0.234 -0.142,-0.449 -0.348,-0.646c-0.106,-0.095 -0.45,-0.339 -1.032,-0.733l-1.121,-0.759l-1.221,1.806z"/></g><g id="g830" stroke="null" stroke-opacity=".502" transform="matrix(1.5864,-0.47997,0.47809,1.5926,-149.72,20.414)"><path id="path796" fill="#309e3a" stroke="null" d="m201.25977,178.372416c0.491,-0.725 1.011,-1.26 1.559,-1.605c0.408,-0.253 0.847,-0.43 1.321,-0.529c0.476,-0.098 0.928,-0.103 1.355,-0.017c0.571,0.112 1.145,0.364 1.724,0.756c1.049,0.709 1.666,1.601 1.854,2.676c0.191,1.077 -0.105,2.195 -0.889,3.353c-0.777,1.149 -1.698,1.837 -2.762,2.065c-1.062,0.225 -2.116,-0.017 -3.161,-0.724c-1.058,-0.715 -1.681,-1.606 -1.87,-2.672c-0.187,-1.07 0.103,-2.171 0.869,-3.303z"/><path id="path797" fill="#fff" stroke="null" d="m202.77977,179.332416c-0.545,0.805 -0.773,1.542 -0.683,2.212c0.092,0.665 0.424,1.192 0.997,1.58c0.573,0.387 1.18,0.499 1.824,0.335c0.649,-0.164 1.253,-0.659 1.811,-1.484c0.552,-0.816 0.784,-1.545 0.696,-2.19c-0.084,-0.641 -0.423,-1.163 -1.015,-1.563c-0.592,-0.401 -1.207,-0.52 -1.845,-0.357c-0.636,0.159 -1.231,0.648 -1.785,1.467z"/></g><g id="g833" stroke="null" stroke-opacity=".502" transform="matrix(1.6454,-0.19485,0.19409,1.6519,-103.71,-53.916)"><path id="path793" fill="#309e3a" stroke="null" d="m211.754615,195.509849l4.813,-7.115l3.024,2.046c0.76,0.515 1.268,0.952 1.524,1.314c0.26,0.36 0.384,0.774 0.37,1.241s-0.164,0.91 -0.448,1.331c-0.361,0.534 -0.817,0.869 -1.368,1.006c-0.548,0.134 -1.164,0.035 -1.85,-0.297c0.188,0.391 0.309,0.764 0.363,1.116c0.057,0.355 0.07,0.924 0.039,1.71l-0.071,1.975l-1.717,-1.162l0.008,-2.25c0.005,-0.804 -0.011,-1.322 -0.051,-1.556c-0.037,-0.237 -0.115,-0.434 -0.232,-0.589c-0.114,-0.157 -0.337,-0.348 -0.667,-0.571l-0.291,-0.197l-2.009,2.97l-1.437,-0.972z"/><path id="path794" fill="#fff" stroke="null" d="m215.964615,192.369849l1.063,0.719c0.689,0.467 1.139,0.728 1.35,0.786c0.21,0.058 0.413,0.048 0.607,-0.028c0.193,-0.077 0.361,-0.222 0.506,-0.436c0.162,-0.239 0.227,-0.475 0.197,-0.708c-0.026,-0.234 -0.142,-0.45 -0.348,-0.646c-0.106,-0.095 -0.45,-0.34 -1.033,-0.734l-1.12,-0.758l-1.222,1.805z"/></g><g id="g836" stroke="null" stroke-opacity=".502" transform="matrix(1.6568,0,0,1.6633,-60.955,-99.344)"><path id="path788" fill="#309e3a" stroke="null" d="m239.264304,212.353489c0.49,-0.725 1.01,-1.26 1.56,-1.605c0.407,-0.253 0.847,-0.429 1.32,-0.529c0.477,-0.097 0.928,-0.103 1.355,-0.017c0.571,0.113 1.146,0.365 1.725,0.757c1.048,0.709 1.666,1.601 1.854,2.676c0.191,1.077 -0.106,2.194 -0.89,3.353c-0.777,1.148 -1.697,1.837 -2.761,2.065c-1.063,0.224 -2.116,-0.017 -3.162,-0.724c-1.057,-0.716 -1.681,-1.607 -1.87,-2.673c-0.187,-1.07 0.103,-2.171 0.869,-3.303z"/><path id="path789" fill="#fff" stroke="null" d="m240.784304,213.303489c-0.545,0.806 -0.773,1.543 -0.684,2.212c0.093,0.666 0.425,1.192 0.997,1.58c0.573,0.387 1.181,0.499 1.825,0.336c0.649,-0.165 1.253,-0.659 1.811,-1.485c0.551,-0.815 0.783,-1.545 0.695,-2.189c-0.085,-0.642 -0.423,-1.163 -1.015,-1.564s-1.207,-0.52 -1.845,-0.357c-0.636,0.159 -1.23,0.649 -1.784,1.467z"/></g><path id="path872" fill="#309e3a" stroke="null" stroke-opacity=".502" d="m208.780244,198.638728l2.2915,-10.031l7.4083,1.7083l-0.38534,1.6946l-5.3895,-1.241l-0.51321,2.2235l5.0195,1.1571l-0.38874,1.6877l-5.0127,-1.1537l-0.62574,2.7284l5.5805,1.2855l-0.38533,1.6912l-7.5992,-1.7511l-0.00004,0.0005z"/></g></g></g></g></svg>